<svg viewBox="0 0 299 383" fill="none" xmlns="http://www.w3.org/2000/svg">
<path d="M159.037 306.209L20 223.604L159.037 141V223.604V306.209Z" fill="#FF458B"/>
<path d="M159 306.209L298.037 223.604L159 141V223.604V306.209Z" fill="#FFC600"/>
<path d="M218.126 307.839L185.916 289.308V252.244L218.126 271.658L250.336 252.244V289.308L218.126 307.839Z" fill="#FF458B"/>
<path d="M217.898 271.659L185.916 252.686L217.898 233.713L250.336 252.686L217.898 271.659Z" fill="#0149FF"/>
<path d="M158.97 382.722H19.9404V223.342L158.97 305.874L298 223V382.722H158.97Z" fill="#003DC1"/>
<path d="M158.97 382.721H18.9404L158.97 305.873V382.721Z" fill="#0149FF"/>
<path d="M170.455 240.416L145.276 225.93V196.957L170.455 212.133L195.634 196.957V225.93L170.455 240.416Z" fill="#00E366"/>
<path d="M170.277 212.133L145.277 197.302L170.277 182.471L195.635 197.302L170.277 212.133Z" fill="#0149FF"/>
<path d="M72.4999 35.6713L57 26.7535V8.91797L72.4999 18.2604L87.9999 8.91797V26.7535L72.4999 35.6713Z" fill="#00E366"/>
<path d="M72.3905 18.2602L57.0005 9.1301L72.3905 0L88.0004 9.1301L72.3905 18.2602Z" fill="#0149FF"/>
<path d="M144.393 125.333L125.84 114.659V93.3105L144.393 104.493L162.946 93.3105V114.659L144.393 125.333Z" fill="#FFC600"/>
<path d="M144.261 104.493L125.84 93.5651L144.261 82.6367L162.946 93.5651L144.261 104.493Z" fill="#FF458B"/>
<path d="M229.574 170.986L202.702 155.525V124.604L229.574 140.801L256.446 124.604V155.525L229.574 170.986Z" fill="#FF458B"/>
<path d="M229.384 140.8L202.702 124.971L229.384 109.143L256.447 124.971L229.384 140.8Z" fill="#00E366"/>
<path d="M73.427 208.093L39.2607 188.436V149.121L73.427 169.714L107.593 149.121V188.436L73.427 208.093Z" fill="#0149FF"/>
<path d="M73.1842 169.714L39.2603 149.588L73.1842 129.463L107.593 149.588L73.1842 169.714Z" fill="#00E366"/>
<path d="M19.3206 100.463L0 89.3471V67.1152L19.3206 78.7605L38.6412 67.1152V89.3471L19.3206 100.463Z" fill="#FF458B"/>
<path d="M19.1845 78.7612L0.000976562 67.3806L19.1845 56L38.6421 67.3806L19.1845 78.7612Z" fill="#FFC600"/>
</svg>
