<svg viewBox="0 0 65 65" fill="none" xmlns="http://www.w3.org/2000/svg">
<path fill-rule="evenodd" clip-rule="evenodd" d="M26.6621 0H37.8573C46.8362 0 50.3986 0.995178 53.8929 2.86391C57.3872 4.73265 60.1295 7.47494 61.9982 10.9692L62.1402 11.2382C63.894 14.6048 64.8371 18.1612 64.8622 26.6619V37.8571C64.8622 46.8358 63.867 50.3983 61.9982 53.8925C60.1295 57.3867 57.3872 60.129 53.8929 61.9978L53.6239 62.1398C50.2573 63.8935 46.7008 64.8367 38.2 64.8617H27.0048C18.026 64.8617 14.4635 63.8665 10.9693 61.9978C7.475 60.129 4.73268 57.3867 2.86393 53.8925L2.72191 53.6235C0.968187 50.2569 0.0250074 46.7005 0 38.1997V27.0046C0 18.0259 0.995185 14.4634 2.86393 10.9692C4.73268 7.47494 7.475 4.73265 10.9693 2.86391L11.2383 2.72189C14.6049 0.96818 18.1614 0.0250072 26.6621 0Z" fill="#FF458B"/>
<path d="M51.4575 17.7289C46.5345 12.6729 38.5949 12.6729 33.7355 17.7337C33.2589 18.2234 32.8237 18.7453 32.4281 19.2976C32.0326 18.7437 31.5941 18.2202 31.116 17.7273C26.2566 12.7355 18.3217 12.7355 13.4416 17.7257C8.255 23.0049 9.28756 31.1871 16.3757 38.4685L31.0318 53.5659C31.3844 53.9288 31.9087 54.1407 32.4281 54.1407C32.9126 54.1407 33.2685 53.985 33.6831 53.6879L33.8245 53.5659L48.4805 38.4685C55.5591 31.1967 56.6044 23.0162 51.4575 17.7289Z" fill="white"/>
</svg>
