<svg viewBox="0 0 21 24" fill="none" xmlns="http://www.w3.org/2000/svg">
<path d="M19.9426 20.2872C19.9426 21.6991 15.6619 22.8496 10.38 22.8496C5.09817 22.8496 0.817383 21.7066 0.817383 20.2872C0.817383 18.8751 5.09817 17.7246 10.38 17.7246C15.6619 17.7246 19.9352 18.8751 19.9426 20.2872Z" fill="black" fill-opacity="0.1"/>
<path d="M5.14295 17.5307C4.21655 16.2009 4.03725 11.8679 6.19627 9.20071C7.26464 7.92334 7.54108 7.03428 7.62325 5.83143C7.68297 4.46425 6.65951 0.392712 10.5144 0.086407C14.4217 -0.227383 14.205 3.6275 14.1826 5.6671C14.1677 7.38533 15.4452 8.36404 16.3267 9.70886C17.9479 12.1742 17.8134 16.4175 16.0204 18.7186C13.7493 21.5949 11.8069 20.3472 10.5144 20.4518C8.0939 20.5938 8.01173 21.8788 5.14295 17.5307Z" fill="black"/>
<path d="M14.5715 9.96212C15.2439 10.5822 16.9846 13.3539 14.2279 15.0872C13.2567 15.6923 15.0946 17.9933 15.9761 16.8802C17.5375 14.878 16.5439 11.6804 15.6025 10.5374C14.975 9.73059 14.0038 9.4168 14.5716 9.96221L14.5715 9.96212Z" fill="url(#paint0_linear_532:33147)"/>
<path d="M14.3847 9.5899C15.4903 10.4864 17.5 13.6241 14.564 15.6711C13.6002 16.3062 15.4156 18.3158 16.4392 17.2923C19.9877 13.7212 16.3495 9.61976 15.0943 8.20775C13.9737 6.97512 12.9801 8.49168 14.3847 9.5899Z" fill="black" stroke="black" stroke-width="0.977"/>
<path d="M12.7933 2.03575C12.7559 3.05928 11.6279 3.94842 10.2756 4.03059C8.92342 4.11276 7.86262 3.33581 7.89988 2.31227C7.9373 1.28874 9.06538 0.399678 10.4176 0.317508C11.7697 0.242823 12.8306 1.01229 12.7933 2.03575Z" fill="url(#paint1_linear_532:33147)"/>
<path d="M9.55805 4.47114C9.59547 5.13606 9.28168 5.69636 8.84838 5.71873C8.41508 5.74119 8.03401 5.22572 7.99667 4.5608C7.95932 3.89588 8.27311 3.33558 8.70642 3.31321C9.13972 3.29075 9.52079 3.80622 9.55805 4.47114Z" fill="url(#paint2_linear_532:33147)"/>
<path d="M10.343 4.52483C10.358 5.29429 10.8586 5.9069 11.4562 5.89202C12.0539 5.87705 12.5245 5.24198 12.5096 4.46503C12.4947 3.69557 11.9942 3.08296 11.3964 3.09792C10.7988 3.11281 10.3207 3.75528 10.343 4.52483Z" fill="url(#paint3_linear_532:33147)"/>
<path d="M10.8356 4.69565C10.8282 5.12147 11.0374 5.46512 11.3138 5.46512C11.5827 5.46512 11.8144 5.12147 11.8218 4.70314C11.8292 4.27732 11.6201 3.93359 11.3436 3.93359C11.0673 3.93359 10.8431 4.27732 10.8356 4.69565Z" fill="black"/>
<path d="M9.11005 4.7029C9.1474 5.05403 9.01291 5.35285 8.81864 5.38271C8.62444 5.40517 8.43765 5.14369 8.4003 4.79256C8.36288 4.44142 8.49744 4.14252 8.69164 4.11266C8.88592 4.09029 9.07271 4.35177 9.11005 4.7029Z" fill="black"/>
<path d="M10.9482 4.45701C10.9257 4.69611 11.0378 4.89031 11.1947 4.90528C11.3515 4.92025 11.501 4.73346 11.5234 4.50184C11.5458 4.26281 11.4337 4.06854 11.2769 4.05357C11.12 4.03868 10.9705 4.22547 10.9482 4.45709V4.45701Z" fill="url(#paint4_linear_532:33147)"/>
<path d="M8.94528 4.51684C8.96773 4.71112 8.88556 4.88294 8.76605 4.89783C8.64646 4.9128 8.53443 4.76335 8.51198 4.56167C8.48961 4.36739 8.57178 4.19557 8.69129 4.18068C8.81088 4.16571 8.92291 4.32256 8.94528 4.51684Z" fill="url(#paint5_linear_532:33147)"/>
<path d="M6.59253 11.853C7.12297 10.6501 8.25105 8.53593 8.2735 6.89978C8.2735 5.59988 12.1658 5.28609 12.4796 6.58607C12.7933 7.88598 13.5852 9.82835 14.0932 10.7697C14.6013 11.7035 16.073 14.6844 14.5042 17.2842C13.0921 19.5853 8.81143 21.4082 6.52533 16.9705C5.74838 15.4315 5.89026 13.5265 6.59253 11.853Z" fill="url(#paint6_linear_532:33147)"/>
<path d="M6.11386 10.9558C5.65818 11.8149 4.71681 14.0711 7.01789 15.3038C9.4907 16.6187 9.48322 19.3156 6.50982 18.0306C3.79049 16.8727 4.99326 12.181 5.75532 11.0604C6.24834 10.2759 6.99543 9.3122 6.11386 10.9558Z" fill="url(#paint7_linear_532:33147)"/>
<path d="M6.50287 9.98559C5.77823 11.166 4.04503 13.9451 6.36847 15.3945C9.49123 17.3145 8.60966 19.227 5.75586 17.5012C1.73655 15.0956 5.27016 10.2396 6.87645 8.38686C8.71428 6.30992 7.22759 8.76785 6.50287 9.9855V9.98559Z" fill="black" stroke="black" stroke-width="1.25"/>
<path d="M13.5399 12.3089C13.5399 13.6238 12.2773 15.3272 10.1107 15.3123C7.877 15.3272 6.92822 13.6238 6.92822 12.3089C6.92822 10.9941 8.40744 9.92578 10.2303 9.92578C12.0606 9.93327 13.5399 10.9941 13.5399 12.3089Z" fill="url(#paint8_linear_532:33147)"/>
<path d="M12.3601 8.17721C12.3377 9.53691 11.4486 9.85819 10.328 9.85819C9.20733 9.85819 8.39304 9.65643 8.2959 8.17721C8.2959 7.25081 9.20733 6.71297 10.328 6.71297C11.4486 6.70548 12.36 7.24341 12.36 8.17721H12.3601Z" fill="url(#paint9_linear_532:33147)"/>
<path d="M5.58393 10.2693C6.31613 9.1562 7.86254 7.44537 5.87534 10.5084C4.26165 13.0335 5.2777 14.6547 5.80066 15.1029C7.30973 16.4477 7.24993 17.3516 6.06214 16.6419C3.51456 15.1254 4.045 12.5703 5.58393 10.2693Z" fill="url(#paint10_linear_532:33147)"/>
<path d="M16.1847 10.7259C15.5497 9.41847 13.5325 6.10142 16.2818 9.95631C18.7846 13.4452 17.0289 15.8733 16.7151 16.1123C16.4014 16.3514 15.348 16.837 15.6542 15.9928C15.9681 15.1485 17.522 13.5498 16.1847 10.7258L16.1847 10.7259Z" fill="url(#paint11_linear_532:33147)"/>
<path d="M5.03058 21.0345C3.35709 20.1454 0.9291 21.2063 1.81067 18.8007C1.98998 18.2552 1.5492 17.4335 1.83305 16.903C2.16929 16.2531 2.89393 16.395 3.32723 15.9617C3.75305 15.5135 4.02201 14.7365 4.82141 14.8561C5.61333 14.9755 6.14377 15.9468 6.69658 17.1421C7.10743 17.9938 8.55679 19.1966 8.45973 20.1529C8.34014 21.6171 6.67413 21.8936 5.03058 21.0345Z" fill="url(#paint12_linear_532:33147)"/>
<path d="M17.2159 15.3869C16.9619 15.8651 15.901 16.6345 15.1912 16.4328C14.4741 16.2386 14.1453 15.1478 14.2873 14.3186C14.4218 13.3922 15.1912 13.3398 16.1625 13.8031C17.2084 14.3186 17.5222 14.7519 17.2159 15.3869Z" fill="url(#paint13_linear_532:33147)"/>
<path d="M16.6331 20.624C17.8583 19.1374 20.5852 19.4437 18.7473 17.4042C18.3589 16.9634 18.4784 16.0221 18.0003 15.6187C17.44 15.1256 16.8199 15.529 16.2521 15.2751C15.6843 14.9986 15.0867 14.4682 14.3919 14.8417C13.6971 15.2227 13.6223 16.2089 13.5551 17.5088C13.4953 18.4426 12.6437 20.004 13.0994 20.8632C13.7568 22.193 15.4676 22.0137 16.6331 20.6241V20.624Z" fill="url(#paint14_linear_532:33147)"/>
<path d="M16.1028 18.6369C18.0005 15.8354 16.5885 15.8578 16.1103 15.6411C15.6322 15.417 15.1316 14.9762 14.5714 15.2825C14.011 15.5963 13.9812 16.4032 13.9662 17.464C13.9438 18.2261 13.3088 19.5036 13.6898 20.2133C14.153 21.0425 15.2736 19.8397 16.1028 18.6369Z" fill="url(#paint15_linear_532:33147)"/>
<path d="M4.64216 19.0385C1.80324 17.2007 3.133 16.5732 3.5589 16.2818C4.07437 15.9083 4.08186 15.191 4.71684 15.2583C5.35191 15.3255 5.72541 16.11 6.15123 17.0812C6.46502 17.776 7.55576 18.7024 7.47359 19.5018C7.36904 20.4431 5.86738 19.823 4.64216 19.0385Z" fill="url(#paint16_linear_532:33147)"/>
<path d="M17.0513 15.3636C16.8272 15.7521 15.9157 16.3647 15.3106 16.2003C14.6905 16.0435 14.4066 15.1694 14.5337 14.5119C14.6457 13.7648 15.3106 13.7275 16.1473 14.1011C17.0363 14.5044 17.3128 14.8481 17.0513 15.3636Z" fill="black"/>
<path d="M16.4387 15.1466C16.2967 15.4156 15.6991 15.8414 15.2807 15.7293C14.8624 15.6173 14.6532 15.0122 14.7204 14.5564C14.7802 14.041 15.2284 14.011 15.7962 14.2651C16.4088 14.549 16.603 14.7881 16.4387 15.1466Z" fill="url(#paint17_linear_532:33147)"/>
<path d="M8.71438 5.39805C9.0132 5.12161 9.73784 4.27746 11.1125 5.15895C11.3665 5.32329 11.5757 5.33826 12.0613 5.54742C13.04 5.95095 12.5767 6.92209 11.5308 7.25077C11.0826 7.39274 10.6792 7.93814 9.87232 7.88583C9.17754 7.84841 8.99823 7.39282 8.57241 7.14623C7.81784 6.72041 7.70581 6.14514 8.11666 5.83884C8.52759 5.53253 8.68452 5.42043 8.71438 5.39805Z" fill="url(#paint18_linear_532:33147)"/>
<path d="M12.0754 6.18164C11.6646 6.20401 10.7754 7.09308 9.84164 7.09308C8.90775 7.09308 8.34745 6.22647 8.20557 6.22647" stroke="#FFA800" stroke-width="0.2"/>
<path d="M9.17707 5.32346C9.32652 5.18898 9.79717 4.82288 10.4173 5.19639C10.5517 5.27115 10.6862 5.35332 10.8804 5.46535C11.2764 5.69697 11.0822 6.03321 10.604 6.2423C10.3873 6.33195 10.0288 6.52623 9.75982 6.51126C9.461 6.4814 9.25924 6.28713 9.06504 6.16013C8.69894 5.92111 8.7214 5.71934 8.89322 5.56249C9.02014 5.44289 9.1621 5.33087 9.17715 5.32346H9.17707Z" fill="url(#paint19_linear_532:33147)"/>
<defs>
<linearGradient id="paint0_linear_532:33147" x1="15.331" y1="18.3242" x2="15.8213" y2="12.8252" gradientUnits="userSpaceOnUse">
<stop stop-color="#FFEED7"/>
<stop offset="1" stop-color="#BDBFC2"/>
</linearGradient>
<linearGradient id="paint1_linear_532:33147" x1="10.5623" y1="0.402026" x2="10.3282" y2="3.69634" gradientUnits="userSpaceOnUse">
<stop stop-color="white" stop-opacity="0.8"/>
<stop offset="1" stop-color="white" stop-opacity="0"/>
</linearGradient>
<linearGradient id="paint2_linear_532:33147" x1="8.80652" y1="5.43658" x2="8.66237" y2="3.55347" gradientUnits="userSpaceOnUse">
<stop stop-color="#FFEED7"/>
<stop offset="1" stop-color="#BDBFC2"/>
</linearGradient>
<linearGradient id="paint3_linear_532:33147" x1="11.4245" y1="5.48678" x2="11.4245" y2="3.48362" gradientUnits="userSpaceOnUse">
<stop stop-color="#FFEED7"/>
<stop offset="1" stop-color="#BDBFC2"/>
</linearGradient>
<linearGradient id="paint4_linear_532:33147" x1="11.2584" y1="4.07921" x2="11.1597" y2="4.84726" gradientUnits="userSpaceOnUse">
<stop stop-color="white" stop-opacity="0.65"/>
<stop offset="1" stop-color="white" stop-opacity="0"/>
</linearGradient>
<linearGradient id="paint5_linear_532:33147" x1="8.70922" y1="4.21906" x2="8.81549" y2="4.84107" gradientUnits="userSpaceOnUse">
<stop stop-color="white" stop-opacity="0.65"/>
<stop offset="1" stop-color="white" stop-opacity="0"/>
</linearGradient>
<linearGradient id="paint6_linear_532:33147" x1="10.6032" y1="18.2704" x2="10.6032" y2="11.4144" gradientUnits="userSpaceOnUse">
<stop stop-color="#FFEED7"/>
<stop offset="1" stop-color="#BDBFC2"/>
</linearGradient>
<linearGradient id="paint7_linear_532:33147" x1="6.95609" y1="18.3669" x2="5.20614" y2="12.4012" gradientUnits="userSpaceOnUse">
<stop stop-color="#FFEED7"/>
<stop offset="1" stop-color="#BDBFC2"/>
</linearGradient>
<linearGradient id="paint8_linear_532:33147" x1="10.2235" y1="10.6384" x2="10.2411" y2="15.0255" gradientUnits="userSpaceOnUse">
<stop stop-color="white" stop-opacity="0.8"/>
<stop offset="1" stop-color="white" stop-opacity="0"/>
</linearGradient>
<linearGradient id="paint9_linear_532:33147" x1="10.325" y1="7.88694" x2="10.3445" y2="9.63131" gradientUnits="userSpaceOnUse">
<stop stop-color="white" stop-opacity="0.65"/>
<stop offset="1" stop-color="white" stop-opacity="0"/>
</linearGradient>
<linearGradient id="paint10_linear_532:33147" x1="5.61404" y1="8.96386" x2="5.61404" y2="15.3654" gradientUnits="userSpaceOnUse">
<stop stop-color="white" stop-opacity="0.65"/>
<stop offset="1" stop-color="white" stop-opacity="0"/>
</linearGradient>
<linearGradient id="paint11_linear_532:33147" x1="16.2359" y1="8.3394" x2="16.2336" y2="14.1235" gradientUnits="userSpaceOnUse">
<stop stop-color="white" stop-opacity="0.65"/>
<stop offset="1" stop-color="white" stop-opacity="0"/>
</linearGradient>
<linearGradient id="paint12_linear_532:33147" x1="5.28113" y1="18.1094" x2="4.3318" y2="21.4049" gradientUnits="userSpaceOnUse">
<stop stop-color="#FFA63F"/>
<stop offset="1" stop-color="#FFFF00"/>
</linearGradient>
<linearGradient id="paint13_linear_532:33147" x1="15.8642" y1="17.7338" x2="15.7286" y2="11.6121" gradientUnits="userSpaceOnUse">
<stop stop-color="#FFEED7"/>
<stop offset="1" stop-color="#BDBFC2"/>
</linearGradient>
<linearGradient id="paint14_linear_532:33147" x1="14.923" y1="17.1138" x2="17.5079" y2="20.7759" gradientUnits="userSpaceOnUse">
<stop stop-color="#FFA63F"/>
<stop offset="1" stop-color="#FFFF00"/>
</linearGradient>
<linearGradient id="paint15_linear_532:33147" x1="15.6515" y1="14.2636" x2="14.7681" y2="18.5882" gradientUnits="userSpaceOnUse">
<stop stop-color="white" stop-opacity="0.65"/>
<stop offset="1" stop-color="white" stop-opacity="0"/>
</linearGradient>
<linearGradient id="paint16_linear_532:33147" x1="5.07355" y1="15.3278" x2="5.24814" y2="20.1799" gradientUnits="userSpaceOnUse">
<stop stop-color="white" stop-opacity="0.65"/>
<stop offset="1" stop-color="white" stop-opacity="0"/>
</linearGradient>
<linearGradient id="paint17_linear_532:33147" x1="15.486" y1="14.1836" x2="15.6906" y2="15.6355" gradientUnits="userSpaceOnUse">
<stop stop-color="white" stop-opacity="0.65"/>
<stop offset="1" stop-color="white" stop-opacity="0"/>
</linearGradient>
<linearGradient id="paint18_linear_532:33147" x1="10.2278" y1="5.31729" x2="10.2449" y2="7.8703" gradientUnits="userSpaceOnUse">
<stop stop-color="#FFA63F"/>
<stop offset="1" stop-color="#FFFF00"/>
</linearGradient>
<linearGradient id="paint19_linear_532:33147" x1="9.93719" y1="5.07594" x2="9.93257" y2="6.42588" gradientUnits="userSpaceOnUse">
<stop stop-color="white" stop-opacity="0.65"/>
<stop offset="1" stop-color="white" stop-opacity="0"/>
</linearGradient>
</defs>
</svg>
