<svg viewBox="0 0 64 64" fill="none" xmlns="http://www.w3.org/2000/svg">
<path fill-rule="evenodd" clip-rule="evenodd" d="M26.3076 0H37.354C46.2134 0 49.7286 0.981957 53.1764 2.82587C56.6242 4.66978 59.33 7.37564 61.1739 10.8234L61.3141 11.0889C63.0445 14.4107 63.9751 17.9199 63.9998 26.3077V37.3541C63.9998 46.2136 63.0178 49.7287 61.1739 53.1765C59.33 56.6244 56.6242 59.3302 53.1764 61.1741L52.9109 61.3143C49.5891 63.0447 46.0799 63.9753 37.6921 64H26.6458C17.7863 64 14.2712 63.018 10.8234 61.1741C7.37561 59.3302 4.66976 56.6244 2.82586 53.1765L2.68572 52.9111C0.955315 49.5893 0.0246749 46.0801 0 37.6923V26.6459C0 17.7864 0.981954 14.2713 2.82586 10.8234C4.66976 7.37564 7.37561 4.66978 10.8234 2.82587L11.0889 2.68573C14.4107 0.955318 17.9199 0.024675 26.3076 0Z" fill="#FF458B"/>
<path fill-rule="evenodd" clip-rule="evenodd" d="M32.0564 56.5938L32.0564 10.0481L51.9478 16.7297L51.9478 29.962C51.9478 42.2651 43.8536 53.102 32.0564 56.5938Z" fill="#0218A7"/>
<path fill-rule="evenodd" clip-rule="evenodd" d="M32.0562 56.5938C20.259 53.102 12.1648 42.2651 12.1648 29.962V16.7297L32.0562 10.0481L32.0562 56.5938Z" fill="white"/>
</svg>
