<svg width="122" height="33" viewBox="0 0 122 33" fill="none" xmlns="http://www.w3.org/2000/svg">
<path d="M14.3466 32.6328C12.877 32.6328 11.681 31.4615 11.6412 30.0015L4.0259 25.6049C3.62989 25.8194 3.20267 25.9249 2.77962 25.931L2.73777 25.9313C1.80352 25.9302 0.895263 25.4449 0.394539 24.5776C-0.340277 23.3049 0.0761578 21.6834 1.32074 20.919L1.32074 12.1259C0.0761578 11.3615 -0.340277 9.73996 0.394539 8.46722C0.88779 7.61288 1.7765 7.12922 2.69595 7.11394L2.73777 7.11357C3.17446 7.11307 3.61683 7.21837 4.02591 7.4399L11.6412 3.04333C11.6806 1.59819 12.8528 0.435878 14.3018 0.412384L14.3466 0.412022C15.8161 0.412022 17.0122 1.58333 17.0519 3.04331L24.6671 7.43996C25.0632 7.22546 25.4904 7.11991 25.9135 7.11385L25.9554 7.11357C26.8896 7.11464 27.7979 7.59994 28.2986 8.46722C29.0334 9.73992 28.617 11.3614 27.3725 12.1258L27.3725 20.919C28.617 21.6835 29.0334 23.3049 28.2986 24.5776C27.8053 25.4319 26.9166 25.9156 25.9972 25.9309L25.9554 25.9313C25.5186 25.9318 25.0762 25.8265 24.6671 25.6049L17.0519 30.0015C17.0126 31.4466 15.8404 32.609 14.3913 32.6324L14.3466 32.6328ZM14.3466 4.40717L14.3819 4.40669C14.3835 4.40665 14.3851 4.40661 14.3867 4.40656L14.3819 4.40669C14.3933 4.40639 14.4046 4.40593 14.416 4.40533L14.3867 4.40656C14.3988 4.40619 14.4109 4.40565 14.4229 4.40495L14.416 4.40533C14.4274 4.40472 14.4387 4.40397 14.4501 4.40307L14.4229 4.40495C14.4384 4.40404 14.4539 4.40286 14.4692 4.40141L14.4501 4.40307C14.4596 4.40231 14.469 4.40145 14.4785 4.40049L14.4692 4.40141C14.4801 4.40038 14.491 4.39921 14.5018 4.39792L14.4785 4.40049C14.4905 4.39927 14.5025 4.39788 14.5144 4.39633L14.5018 4.39792C14.5113 4.39677 14.5208 4.39552 14.5303 4.39417L14.5144 4.39633C14.527 4.39469 14.5395 4.39287 14.552 4.39087L14.5303 4.39417C14.5415 4.39258 14.5526 4.39084 14.5636 4.38897L14.552 4.39087C14.5628 4.38915 14.5735 4.38729 14.5842 4.38529L14.5636 4.38897C14.5745 4.38713 14.5852 4.38516 14.596 4.38305L14.5842 4.38529C14.594 4.38347 14.6037 4.38154 14.6135 4.37949L14.596 4.38305C14.6366 4.37508 14.6766 4.36519 14.7158 4.35349C14.7191 4.35254 14.7224 4.35154 14.7257 4.35053L14.7158 4.35349C14.7238 4.35111 14.7317 4.34866 14.7396 4.34613L14.7257 4.35053C14.7357 4.34748 14.7456 4.3443 14.7554 4.34101L14.7396 4.34613C14.752 4.34218 14.7642 4.33805 14.7764 4.33374L14.7554 4.34101C14.7655 4.33767 14.7754 4.33421 14.7853 4.33063L14.7764 4.33374C15.2768 4.15675 15.6353 3.67945 15.6353 3.11841C15.6353 2.40665 15.0583 1.82965 14.3466 1.82965C13.6348 1.82965 13.0578 2.40665 13.0578 3.11841C13.0578 3.643 13.3712 4.09439 13.8211 4.29551C13.8226 4.29636 13.8242 4.29707 13.8258 4.29779L13.8211 4.29551C13.8494 4.3082 13.8784 4.31989 13.9078 4.33055C13.9108 4.33171 13.9138 4.33277 13.9167 4.33383L13.9078 4.33055C13.9177 4.33414 13.9277 4.33761 13.9377 4.34096L13.9167 4.33383C13.9289 4.33812 13.9412 4.34224 13.9535 4.34618L13.9377 4.34096C13.9476 4.34426 13.9575 4.34745 13.9675 4.35052L13.9535 4.34618C13.9607 4.34848 13.9679 4.35071 13.9752 4.35289L13.9675 4.35052C14.0042 4.3618 14.0416 4.37149 14.0797 4.3795C14.0855 4.38072 14.0913 4.3819 14.0972 4.38305L14.0797 4.3795C14.0894 4.38154 14.0991 4.38347 14.1089 4.3853L14.0972 4.38305C14.1079 4.38515 14.1187 4.38713 14.1295 4.38896L14.1089 4.3853C14.1196 4.38729 14.1303 4.38916 14.1411 4.39089L14.1295 4.38896C14.1406 4.39083 14.1517 4.39256 14.1628 4.39415L14.1411 4.39089C14.1537 4.3929 14.1664 4.39473 14.1791 4.39638L14.1628 4.39415C14.1721 4.39548 14.1815 4.39671 14.1908 4.39784L14.1791 4.39638C14.1908 4.39791 14.2027 4.39928 14.2145 4.40049L14.1908 4.39784C14.2023 4.39922 14.2137 4.40044 14.2252 4.40152L14.2145 4.40049C14.2239 4.40144 14.2332 4.40229 14.2426 4.40304L14.2252 4.40152C14.24 4.4029 14.2548 4.40403 14.2697 4.40491L14.2426 4.40304C14.2542 4.40396 14.2657 4.40473 14.2774 4.40534L14.2697 4.40491C14.2819 4.40562 14.294 4.40617 14.3063 4.40655L14.2774 4.40534C14.3003 4.40656 14.3233 4.40717 14.3466 4.40717ZM18.536 13.252L23.3303 10.4841C23.3258 10.4664 23.3215 10.4487 23.3174 10.4309C23.3044 10.3748 23.2932 10.3184 23.2839 10.2619C23.2805 10.2412 23.2773 10.2205 23.2744 10.1998C23.2637 10.1239 23.2562 10.0478 23.252 9.97185C23.2519 9.96968 23.2518 9.96756 23.2517 9.96543L23.252 9.97185C23.2513 9.95912 23.2507 9.9464 23.2502 9.93368C23.2499 9.9257 23.2496 9.91772 23.2493 9.90975C23.2469 9.83553 23.2476 9.76144 23.2513 9.68762C23.2516 9.68152 23.2519 9.67548 23.2523 9.66945C23.2527 9.66157 23.2532 9.65366 23.2537 9.64575C23.2542 9.63888 23.2547 9.63203 23.2552 9.62517C23.2589 9.57384 23.2641 9.52268 23.2708 9.47174C23.2725 9.45895 23.2742 9.44624 23.2761 9.43353C23.2776 9.42309 23.2792 9.41261 23.2808 9.40215C23.2864 9.36638 23.2928 9.33076 23.2998 9.29528C23.3011 9.28879 23.3024 9.2823 23.3037 9.2758C23.3053 9.26806 23.3069 9.26037 23.3086 9.25269C23.3104 9.24436 23.3122 9.23602 23.3141 9.22769C23.3155 9.22113 23.3171 9.21456 23.3186 9.20799C23.3206 9.19926 23.3227 9.19055 23.3248 9.18185C23.3262 9.17587 23.3277 9.1699 23.3292 9.16393C23.3399 9.12134 23.3515 9.07901 23.3642 9.03698C23.3655 9.03278 23.3668 9.02862 23.3681 9.02445C23.3712 9.01422 23.3744 9.00401 23.3777 8.99382C23.3797 8.98741 23.3818 8.98097 23.3839 8.97454C23.3864 8.96698 23.3889 8.95943 23.3915 8.9519C23.3932 8.94695 23.3948 8.94203 23.3965 8.93711C23.4002 8.9266 23.4038 8.91613 23.4076 8.90569C23.409 8.9018 23.4104 8.89789 23.4118 8.89399C23.4153 8.8843 23.4189 8.87466 23.4225 8.86505C23.4247 8.85928 23.4269 8.85346 23.4291 8.84765C23.4318 8.84069 23.4345 8.83379 23.4372 8.82689C23.4463 8.80381 23.4557 8.78086 23.4654 8.75803C23.4704 8.74643 23.4754 8.73488 23.4805 8.72337C23.4815 8.72115 23.4825 8.71892 23.4835 8.71669C23.4881 8.70625 23.4928 8.69584 23.4976 8.68547C23.4999 8.68055 23.5021 8.67566 23.5044 8.67078C23.5098 8.65939 23.5152 8.64803 23.5207 8.63671C23.5213 8.63538 23.5219 8.63409 23.5226 8.63279C23.5277 8.6222 23.533 8.6116 23.5383 8.60103C23.5412 8.59532 23.5441 8.58964 23.547 8.58397C23.5559 8.56647 23.5651 8.54904 23.5745 8.5317C23.5862 8.50996 23.5982 8.48842 23.6106 8.46704L16.6908 4.47182L16.6765 4.49615C16.6756 4.49774 16.6746 4.49933 16.6737 4.50092C16.6616 4.52128 16.6492 4.54142 16.6366 4.56138C16.6328 4.56742 16.629 4.57343 16.6251 4.57942C16.6216 4.58487 16.6181 4.59034 16.6145 4.59579C16.6104 4.60203 16.6063 4.60825 16.6022 4.61445C16.5992 4.61899 16.5962 4.62351 16.5931 4.62802C16.5362 4.71267 16.4745 4.79393 16.4085 4.87143C16.4041 4.87664 16.3997 4.88179 16.3953 4.88691C16.3909 4.89202 16.3864 4.89712 16.382 4.90221C16.3771 4.90778 16.3721 4.91335 16.3672 4.9189C16.3625 4.92418 16.3578 4.92942 16.353 4.93464C16.3486 4.93958 16.3441 4.9445 16.3396 4.94941C16.3246 4.96566 16.3095 4.98174 16.2942 4.99762C16.279 5.01334 16.2636 5.02888 16.2481 5.04423C16.1977 5.09397 16.1454 5.14176 16.0912 5.18746C16.0844 5.19321 16.0776 5.19895 16.0707 5.20465C16.0667 5.20791 16.0628 5.21114 16.0589 5.21436C16.0524 5.21965 16.0459 5.22491 16.0394 5.23015C16.034 5.23445 16.0287 5.23872 16.0233 5.24296C16.0183 5.24693 16.0132 5.25088 16.0082 5.25481C16.0017 5.25984 15.9952 5.26486 15.9887 5.26986C15.9836 5.27377 15.9785 5.27764 15.9733 5.2815C15.9665 5.28662 15.9597 5.29172 15.9529 5.29678C15.9487 5.29986 15.9445 5.30295 15.9403 5.30603C15.9316 5.31236 15.9229 5.31862 15.9142 5.32483C15.9112 5.32692 15.9083 5.32901 15.9053 5.3311C15.8732 5.35376 15.8406 5.37574 15.8075 5.39701C15.7878 5.40964 15.7681 5.42197 15.7482 5.43405C15.727 5.44687 15.7057 5.4594 15.6843 5.47163C15.6775 5.47546 15.6708 5.47928 15.664 5.48308C15.6583 5.48622 15.6528 5.48931 15.6472 5.49238C15.6419 5.49527 15.6365 5.49819 15.6312 5.50109C15.6231 5.50546 15.615 5.50976 15.607 5.51401C15.6 5.51767 15.593 5.52131 15.5861 5.52492C15.5824 5.52679 15.5788 5.52867 15.5751 5.53055C15.5661 5.53514 15.5571 5.53966 15.5481 5.54414C15.5413 5.54749 15.5345 5.55082 15.5277 5.55413C15.5235 5.5562 15.5192 5.55825 15.515 5.56028C15.505 5.56508 15.4949 5.56983 15.4848 5.57451C15.4814 5.5761 15.4779 5.5777 15.4745 5.57928C15.4661 5.58311 15.4578 5.5869 15.4494 5.59065C15.4304 5.59915 15.4113 5.60741 15.3921 5.61545C15.3704 5.62456 15.3485 5.63338 15.3265 5.64193C15.3143 5.64666 15.3021 5.65131 15.2899 5.65587C15.2548 5.66892 15.2194 5.68125 15.1837 5.69285C15.1794 5.69423 15.1752 5.69559 15.171 5.69695C15.1623 5.69971 15.1536 5.70243 15.1449 5.70511C15.1391 5.70693 15.1332 5.70872 15.1273 5.7105C15.1178 5.71334 15.1083 5.71613 15.0989 5.71887C15.0946 5.7201 15.0903 5.72132 15.086 5.72254C15.0819 5.72371 15.0777 5.72488 15.0736 5.72603L15.0736 10.9381C16.5543 11.1211 17.8259 12.0034 18.536 13.252ZM10.4036 13.3619C11.0661 12.1178 12.264 11.2365 13.656 10.9798L13.656 5.73591C13.6534 5.73522 13.6508 5.73453 13.6482 5.73383C13.6453 5.73306 13.6424 5.73228 13.6395 5.73149C13.6278 5.72834 13.6162 5.72513 13.6046 5.72183C13.6008 5.72075 13.597 5.71966 13.5932 5.71856C13.5828 5.71557 13.5726 5.71252 13.5623 5.70942C13.5578 5.70807 13.5533 5.7067 13.5488 5.70532C13.5387 5.70218 13.5285 5.699 13.5184 5.69576C13.5139 5.6943 13.5094 5.69285 13.5049 5.69138C13.4975 5.68895 13.49 5.68647 13.4826 5.68396C13.4747 5.68132 13.4669 5.67866 13.4592 5.67596C13.4503 5.67287 13.4414 5.66975 13.4326 5.66658C13.4294 5.66543 13.4261 5.66425 13.4228 5.66306C13.4142 5.65993 13.4056 5.65678 13.3971 5.65358C13.3899 5.65087 13.3827 5.64813 13.3755 5.64536C13.3679 5.64243 13.3602 5.63946 13.3526 5.63645C13.3477 5.63452 13.3428 5.63258 13.338 5.63062C13.3308 5.62775 13.3237 5.62487 13.3167 5.62195C13.291 5.61138 13.2655 5.60042 13.2402 5.58908C13.2053 5.57342 13.1708 5.55704 13.1367 5.53996C13.129 5.53613 13.1214 5.53227 13.1138 5.52837C13.1093 5.52609 13.1049 5.52379 13.1004 5.52148C13.0944 5.51834 13.0884 5.51519 13.0824 5.51201C13.0735 5.50729 13.0646 5.50251 13.0557 5.49768C13.0526 5.49601 13.0496 5.49436 13.0466 5.4927C13.0379 5.48795 13.0292 5.48314 13.0206 5.47827C13.0155 5.47538 13.0104 5.47249 13.0053 5.46957C12.9971 5.46492 12.989 5.4602 12.9808 5.45545C12.9767 5.45303 12.9727 5.45064 12.9686 5.44823C12.9593 5.44271 12.9499 5.43709 12.9406 5.43142C12.9381 5.42985 12.9355 5.42831 12.933 5.42678C12.9259 5.42241 12.9188 5.41797 12.9116 5.41351C12.9032 5.40824 12.8949 5.40296 12.8866 5.39763C12.8669 5.38501 12.8474 5.37213 12.8281 5.35901C12.8252 5.35705 12.8223 5.35507 12.8194 5.35308C12.8131 5.34879 12.8069 5.34448 12.8007 5.34015C12.7656 5.31569 12.7311 5.2904 12.6972 5.26433C12.6676 5.24152 12.6385 5.21815 12.6099 5.1942C12.6073 5.19197 12.6046 5.18976 12.602 5.18755C12.4677 5.0742 12.3445 4.94799 12.2345 4.81083C12.2302 4.80539 12.2258 4.79994 12.2215 4.79448C12.2171 4.78891 12.2127 4.78331 12.2083 4.77769C12.2036 4.77158 12.1989 4.76544 12.1942 4.75928C12.1901 4.75391 12.186 4.74855 12.1819 4.74317C12.1785 4.73851 12.175 4.73384 12.1715 4.72915C12.1651 4.72059 12.1588 4.712 12.1526 4.70337C12.1505 4.70049 12.1484 4.69758 12.1463 4.69467C12.0948 4.62291 12.0467 4.54854 12.0023 4.47179L5.08253 8.46697C5.09487 8.48839 5.1069 8.50996 5.11864 8.53168C5.1218 8.53755 5.12494 8.5434 5.12806 8.54927C5.13069 8.55423 5.13329 8.55917 5.13587 8.56412C5.14752 8.58639 5.15883 8.60879 5.16983 8.63132C5.17128 8.6343 5.17272 8.63728 5.17417 8.64026C5.1864 8.66557 5.19823 8.69104 5.20966 8.71668C5.21214 8.72225 5.21458 8.72777 5.217 8.73331C5.22735 8.75696 5.23737 8.78077 5.24704 8.80472L5.24817 8.80751C5.25121 8.81507 5.25423 8.82264 5.2572 8.83022C5.25948 8.83602 5.26172 8.84181 5.26395 8.84761C5.27243 8.86966 5.28062 8.89181 5.28851 8.91406C5.29003 8.91835 5.29157 8.9227 5.29309 8.92706C5.29598 8.93533 5.2988 8.94355 5.30159 8.95179C5.30969 8.97572 5.31746 8.99976 5.32488 9.0239C5.32624 9.0283 5.32756 9.03265 5.32888 9.037C5.33531 9.05827 5.34148 9.07964 5.34739 9.10108C5.35479 9.12793 5.36177 9.15484 5.36833 9.18186C5.37399 9.20515 5.37934 9.22852 5.38438 9.25196C5.38539 9.25662 5.38637 9.26126 5.38735 9.2659C5.39577 9.30608 5.40329 9.34648 5.4099 9.38706C5.41448 9.41521 5.41862 9.44342 5.42232 9.47171C5.42898 9.52268 5.43419 9.57384 5.43795 9.62516C5.43846 9.63207 5.43894 9.63901 5.43939 9.64595C5.43991 9.6538 5.44039 9.66164 5.44083 9.66948C5.44118 9.67553 5.4415 9.68157 5.4418 9.68761C5.44308 9.71306 5.44399 9.73853 5.44455 9.76402C5.44513 9.79101 5.44532 9.81806 5.4451 9.84512C5.44504 9.85161 5.44497 9.8581 5.44487 9.8646C5.44477 9.8711 5.44464 9.87757 5.4445 9.88404C5.4443 9.89258 5.44407 9.90115 5.44379 9.90971C5.44354 9.91763 5.44325 9.92554 5.44293 9.93346C5.44264 9.94055 5.44232 9.94764 5.44197 9.95472C5.44148 9.96467 5.44094 9.97462 5.44035 9.98457C5.43997 9.99084 5.43957 9.99713 5.43915 10.0034C5.43894 10.0065 5.43873 10.0096 5.43851 10.0127L5.43729 10.0293C5.43185 10.1003 5.42357 10.1713 5.41241 10.2422C5.4108 10.2524 5.40912 10.2627 5.40739 10.2729C5.4063 10.2793 5.40519 10.2857 5.40405 10.2922C5.40319 10.297 5.40232 10.3019 5.40143 10.3067C5.39908 10.3196 5.39662 10.3325 5.39407 10.3455C5.39399 10.3459 5.39391 10.3463 5.39383 10.3467L5.39407 10.3455C5.38678 10.3823 5.3787 10.4191 5.36983 10.4558L10.4036 13.3619ZM26.5992 10.9365C27.2156 10.5806 27.4268 9.79244 27.0709 9.17603C26.715 8.55963 25.9268 8.34844 25.3104 8.70432C24.8249 8.98464 24.5907 9.5332 24.6871 10.0547C24.6881 10.0602 24.6891 10.0657 24.6902 10.0712L24.6871 10.0547C24.6891 10.0655 24.6913 10.0762 24.6935 10.0869L24.6902 10.0712C24.6927 10.0834 24.6953 10.0957 24.6981 10.1079L24.6935 10.0869C24.6958 10.0979 24.6983 10.1089 24.7009 10.1198L24.6981 10.1079C24.7007 10.119 24.7034 10.1301 24.7062 10.1412L24.7009 10.1198C24.7038 10.1317 24.7068 10.1436 24.71 10.1554L24.7062 10.1412C24.7092 10.1528 24.7124 10.1645 24.7157 10.1761L24.71 10.1554C24.7129 10.1662 24.7159 10.1769 24.7191 10.1877L24.7157 10.1761C24.7264 10.2129 24.7387 10.2495 24.7527 10.2856C24.7552 10.292 24.7578 10.2985 24.7604 10.3049L24.7527 10.2856C24.7576 10.2981 24.7627 10.3106 24.7679 10.323L24.7604 10.3049C24.7641 10.3139 24.7679 10.323 24.7718 10.332L24.7679 10.323C24.7731 10.3351 24.7784 10.3472 24.784 10.3592L24.7718 10.332C24.777 10.344 24.7824 10.3559 24.788 10.3678L24.784 10.3592C24.7891 10.3704 24.7944 10.3815 24.7999 10.3926L24.788 10.3678C24.7929 10.3782 24.7979 10.3887 24.8032 10.399L24.7999 10.3926C24.812 10.4169 24.8249 10.441 24.8387 10.4648C24.8562 10.4952 24.8749 10.5247 24.8946 10.5533C24.8987 10.5592 24.9029 10.5652 24.9071 10.5711L24.8946 10.5533C24.901 10.5625 24.9075 10.5717 24.9141 10.5808L24.9071 10.5711C24.9143 10.5811 24.9216 10.591 24.929 10.6008L24.9141 10.5808C24.9204 10.5894 24.9267 10.5979 24.9332 10.6063L24.929 10.6008C24.9349 10.6086 24.9408 10.6162 24.9468 10.6238L24.9332 10.6063C24.9412 10.6168 24.9494 10.6271 24.9577 10.6373L24.9468 10.6238C24.9536 10.6323 24.9605 10.6408 24.9675 10.6491L24.9577 10.6373C24.9658 10.6471 24.974 10.6569 24.9823 10.6664L24.9675 10.6491C24.9746 10.6575 24.9817 10.6658 24.9889 10.674L24.9823 10.6664C24.9904 10.6758 24.9987 10.6851 25.0072 10.6943L24.9889 10.674C24.9967 10.6828 25.0045 10.6915 25.0125 10.7L25.0072 10.6943C25.0214 10.7098 25.0361 10.725 25.0511 10.7397C25.4538 11.136 26.086 11.2328 26.5992 10.9365ZM3.55977 10.8139L3.58266 10.7946C3.58527 10.7924 3.58787 10.7901 3.59046 10.7878L3.58262 10.7946C3.59583 10.7831 3.60884 10.7714 3.62163 10.7593C3.63378 10.7479 3.64574 10.7362 3.65748 10.7243C3.66958 10.7119 3.68151 10.6993 3.69321 10.6863C3.69616 10.6831 3.6991 10.6798 3.70203 10.6765L3.69321 10.6863C3.70027 10.6785 3.70724 10.6706 3.71414 10.6626L3.70203 10.6765C3.71835 10.6581 3.7342 10.6391 3.74954 10.6197C3.75205 10.6165 3.75458 10.6133 3.75709 10.61L3.74954 10.6197C3.75558 10.612 3.76154 10.6042 3.76743 10.5964L3.75709 10.61C3.76433 10.6006 3.77147 10.5911 3.77849 10.5815L3.76743 10.5964C3.79878 10.5547 3.82786 10.5108 3.85444 10.4648C3.86616 10.4445 3.87729 10.424 3.88781 10.4033C3.89067 10.3976 3.89346 10.392 3.89621 10.3864L3.88781 10.4033C3.89356 10.3919 3.89913 10.3805 3.90453 10.3691L3.89621 10.3864C3.90182 10.375 3.90725 10.3635 3.91249 10.3519L3.90453 10.3691C3.90953 10.3585 3.91438 10.3479 3.91907 10.3372L3.91249 10.3519C3.91695 10.3421 3.92129 10.3322 3.92549 10.3223L3.91907 10.3372C3.9248 10.3241 3.93029 10.311 3.93556 10.2979L3.92549 10.3223C3.93009 10.3115 3.93453 10.3006 3.93881 10.2897L3.93556 10.2979C3.93917 10.2888 3.94268 10.2798 3.94608 10.2707L3.93881 10.2897C3.94349 10.2778 3.94798 10.2658 3.95229 10.2538L3.96356 10.2209C3.96718 10.2099 3.97066 10.1988 3.97397 10.1877C3.97513 10.1838 3.97627 10.1799 3.97738 10.176L3.97397 10.1877C3.97717 10.177 3.98022 10.1662 3.98313 10.1555L3.97738 10.176C3.98073 10.1644 3.9839 10.1528 3.98691 10.1411L3.98313 10.1555C3.98633 10.1436 3.98935 10.1318 3.9922 10.1199L3.98691 10.1411C3.98975 10.13 3.99245 10.119 3.99499 10.1079L3.9922 10.1199C3.99483 10.1089 3.9973 10.098 3.99963 10.087L3.99499 10.1079C3.99779 10.0956 4.00041 10.0834 4.00284 10.0711L3.99963 10.087C4.00191 10.0763 4.00405 10.0655 4.00604 10.0548L4.00284 10.0711C4.10725 9.5447 3.87334 8.98757 3.38272 8.70432C2.76632 8.34844 1.97813 8.55963 1.62225 9.17603C1.26636 9.79244 1.47756 10.5806 2.09396 10.9365C2.57339 11.2133 3.15674 11.1471 3.55977 10.8139ZM4.62523 21.2833L7.69546 19.5108C7.17343 18.8681 6.86057 18.0487 6.86057 17.1561C6.86057 15.813 7.56912 14.6353 8.63283 13.9765L4.68757 11.6988C4.62671 11.7621 4.56314 11.822 4.49716 11.8784C4.45756 11.9122 4.41711 11.9448 4.37585 11.9761C4.36319 11.9857 4.35045 11.9952 4.33764 12.0046C4.29608 12.035 4.2537 12.0641 4.2106 12.092L4.20925 12.0929C4.20136 12.098 4.19345 12.103 4.18551 12.108C4.1486 12.1313 4.11115 12.1537 4.07323 12.1752C4.05886 12.1833 4.04437 12.1913 4.02982 12.1992C4.01057 12.2096 3.99125 12.2198 3.97182 12.2297L3.97008 12.2306C3.92989 12.2511 3.88923 12.2706 3.84814 12.289C3.8063 12.3078 3.76403 12.3255 3.72136 12.3421L3.71922 12.3429C3.71539 12.3444 3.71155 12.3459 3.70772 12.3473C3.68979 12.3542 3.67182 12.3609 3.65378 12.3673C3.63819 12.3729 3.62252 12.3784 3.60681 12.3837C3.58738 12.3903 3.56789 12.3966 3.54833 12.4028C3.54479 12.4039 3.54127 12.405 3.53775 12.4061C3.51243 12.4139 3.48697 12.4213 3.4614 12.4284L3.45886 12.4291C3.45085 12.4313 3.44283 12.4335 3.4348 12.4357C3.4138 12.4412 3.39274 12.4466 3.37162 12.4517C3.31876 12.4644 3.2655 12.4756 3.21193 12.4851C3.17588 12.4915 3.13968 12.4972 3.10336 12.5022C3.09763 12.503 3.09197 12.5037 3.0863 12.5045C3.06191 12.5077 3.03746 12.5105 3.01296 12.513L3.00974 12.5134C3.00726 12.5136 3.00479 12.5139 3.00231 12.5141C2.97464 12.5168 2.94691 12.5192 2.91914 12.521C2.89399 12.5227 2.86881 12.5241 2.8436 12.5251C2.83813 12.5253 2.83269 12.5255 2.82725 12.5257C2.82603 12.5258 2.82474 12.5258 2.82344 12.5258C2.79506 12.5268 2.76671 12.5272 2.73834 12.5273L2.74443 12.5272L2.73892 12.5273L2.73834 12.5273L2.73834 20.5176C2.767 20.5176 2.79563 20.5181 2.82423 20.519C2.86276 20.5203 2.9012 20.5224 2.93954 20.5253C3.02679 20.5318 3.11355 20.5426 3.19953 20.5575C3.28997 20.5732 3.37959 20.5935 3.46797 20.6182C3.49196 20.6249 3.51584 20.632 3.53961 20.6393C3.573 20.6497 3.60624 20.6607 3.63926 20.6723C3.66675 20.682 3.69414 20.6922 3.72136 20.7028C3.81229 20.7382 3.90109 20.7783 3.98766 20.8233C4.0624 20.8621 4.13554 20.9044 4.20673 20.9503C4.21218 20.9538 4.21762 20.9574 4.22304 20.9609C4.26662 20.9895 4.30946 21.0193 4.35148 21.0505C4.36308 21.0591 4.37465 21.0678 4.38615 21.0766C4.42063 21.103 4.4545 21.1303 4.48776 21.1585C4.52052 21.1862 4.55271 21.2148 4.58427 21.2443C4.59804 21.2571 4.61169 21.2701 4.62523 21.2833ZM24.1172 21.2365L24.1405 21.2152C24.1671 21.1912 24.1942 21.1677 24.2216 21.1448L24.2225 21.1441C24.2522 21.1194 24.2823 21.0954 24.3129 21.0721C24.3413 21.0504 24.3701 21.0293 24.3993 21.0089C24.428 20.9888 24.4571 20.9692 24.4864 20.9503C24.4989 20.9423 24.5115 20.9343 24.5241 20.9265C24.5663 20.9002 24.6093 20.8751 24.6529 20.8513C24.6669 20.8436 24.6811 20.836 24.6952 20.8286C24.7257 20.8126 24.7564 20.7973 24.7873 20.7825C24.8209 20.7665 24.8548 20.7512 24.8889 20.7366C24.951 20.71 25.014 20.6858 25.0778 20.664C25.1149 20.6513 25.1521 20.6395 25.1896 20.6284C25.1949 20.6269 25.2003 20.6253 25.2057 20.6238C25.2147 20.6212 25.2237 20.6186 25.2326 20.6161C25.2356 20.6153 25.2386 20.6145 25.2416 20.6137C25.2569 20.6095 25.2722 20.6055 25.2875 20.6016C25.3631 20.5823 25.4395 20.5663 25.5166 20.5537C25.5412 20.5496 25.5659 20.5459 25.5906 20.5425C25.5954 20.5419 25.6003 20.5412 25.6051 20.5406C25.631 20.5372 25.657 20.5342 25.683 20.5315C25.6841 20.5314 25.6853 20.5313 25.6865 20.5312C25.7158 20.5282 25.7451 20.5257 25.7745 20.5238C25.7996 20.5221 25.8249 20.5207 25.8501 20.5197C25.8552 20.5195 25.8603 20.5193 25.8655 20.5191C25.8673 20.5191 25.869 20.519 25.8706 20.519C25.8986 20.5181 25.9266 20.5176 25.9547 20.5176L25.9488 20.5177L25.9542 20.5176L25.9547 20.5176L25.9547 12.5273C25.9261 12.5272 25.8974 12.5267 25.8688 12.5258C25.8315 12.5246 25.7942 12.5226 25.757 12.5198C25.6804 12.5142 25.604 12.5052 25.5283 12.4931C25.4503 12.4806 25.373 12.4647 25.2965 12.4455C25.2314 12.4292 25.1668 12.4104 25.103 12.3893C25.0038 12.3565 24.9065 12.3179 24.8115 12.2737C24.7577 12.2487 24.7046 12.2218 24.6523 12.1932C24.6489 12.1913 24.6454 12.1894 24.642 12.1875L24.6523 12.1932C24.6238 12.1776 24.5955 12.1615 24.5675 12.1448C24.552 12.1355 24.5366 12.1261 24.5212 12.1166L24.4825 12.092C24.4696 12.0836 24.4568 12.0752 24.444 12.0666C24.4279 12.0558 24.4122 12.045 24.3965 12.034C24.3618 12.0096 24.3276 11.9843 24.294 11.9582C24.2753 11.9437 24.257 11.9291 24.2388 11.9142C24.1648 11.8535 24.0936 11.7886 24.0257 11.7196L19.1418 14.5392C20.6967 14.7346 21.9034 16.0494 21.9293 17.6511L21.9298 17.7039C21.9298 18.4316 21.6861 19.1024 21.2758 19.6391L24.0888 21.2631C24.0982 21.2542 24.1077 21.2453 24.1172 21.2365ZM14.1798 19.4759H18.7401C19.7188 19.4759 20.5121 18.6825 20.5121 17.7039C20.5121 16.7252 19.7188 15.9318 18.7401 15.9318L17.7638 15.9318L17.7113 15.2798C17.5774 13.6145 16.1817 12.3205 14.4999 12.3205C13.1565 12.3205 11.9685 13.1503 11.4928 14.3828L11.3178 14.8364L10.598 14.8364C9.3168 14.8364 8.27821 15.875 8.27821 17.1561C8.27821 18.4373 9.3168 19.4759 10.598 19.4759H14.0628C14.0785 19.4759 14.0939 19.4757 14.109 19.4754L14.1242 19.4751L14.1596 19.4758L14.1798 19.4759ZM12.0024 28.573L12.0166 28.5487C12.0244 28.5356 12.0322 28.5226 12.0402 28.5097C12.0525 28.4897 12.065 28.4699 12.0778 28.4503C12.0821 28.4437 12.0863 28.4373 12.0906 28.4308C12.0944 28.4252 12.0982 28.4195 12.102 28.4138C12.1138 28.3964 12.1258 28.379 12.138 28.3618C12.1702 28.3165 12.2037 28.2722 12.2385 28.229C12.2529 28.2112 12.2674 28.1936 12.2822 28.1762C12.2872 28.1703 12.2922 28.1645 12.2972 28.1587C12.3113 28.1424 12.3256 28.1262 12.3401 28.1102C12.3446 28.1052 12.3491 28.1003 12.3536 28.0954C12.3698 28.0778 12.3862 28.0603 12.4029 28.0431C12.4168 28.0288 12.4309 28.0146 12.4451 28.0005C12.4965 27.9498 12.5499 27.9011 12.6052 27.8546C12.6092 27.8512 12.6132 27.8479 12.6172 27.8445C12.6229 27.8398 12.6286 27.8351 12.6343 27.8305C12.6529 27.8152 12.6717 27.8003 12.6907 27.7856C12.6944 27.7827 12.6982 27.7798 12.702 27.7769C12.7079 27.7723 12.7139 27.7678 12.7198 27.7633C12.7266 27.7582 12.7334 27.7531 12.7403 27.7481C12.7445 27.7449 12.7487 27.7419 12.7529 27.7388C12.7615 27.7325 12.7702 27.7262 12.7789 27.72C12.7819 27.7179 12.7849 27.7158 12.7878 27.7137C12.8086 27.699 12.8296 27.6846 12.8509 27.6705C12.8818 27.65 12.9132 27.63 12.945 27.6108C12.9661 27.598 12.9874 27.5854 13.0089 27.5732C13.0153 27.5695 13.0218 27.5659 13.0283 27.5622C13.0342 27.5589 13.0401 27.5557 13.046 27.5525C13.0513 27.5495 13.0566 27.5466 13.062 27.5437C13.0704 27.5392 13.0788 27.5347 13.0873 27.5302C13.0921 27.5277 13.0969 27.5252 13.1017 27.5227C13.1085 27.5192 13.1153 27.5157 13.1221 27.5122C13.1306 27.5079 13.139 27.5037 13.1475 27.4995C13.1499 27.4983 13.1523 27.4971 13.1546 27.496C13.1644 27.4912 13.1741 27.4865 13.1839 27.4818C13.2021 27.4731 13.2203 27.4647 13.2387 27.4564C13.2594 27.4472 13.2801 27.4381 13.301 27.4294C13.3244 27.4196 13.3479 27.4101 13.3716 27.401C13.3821 27.3969 13.3927 27.3929 13.4033 27.389C13.4233 27.3815 13.4434 27.3743 13.4636 27.3673C13.4702 27.3651 13.4767 27.3628 13.4833 27.3606C13.4917 27.3578 13.5002 27.355 13.5087 27.3522C13.5132 27.3508 13.5177 27.3493 13.5222 27.3479C13.5308 27.3451 13.5395 27.3424 13.5482 27.3397C13.5541 27.3379 13.56 27.3361 13.5659 27.3343C13.5753 27.3315 13.5848 27.3287 13.5943 27.326C13.5985 27.3247 13.6028 27.3235 13.6071 27.3223C13.6172 27.3194 13.6274 27.3166 13.6376 27.3138C13.6427 27.3125 13.6478 27.3111 13.6529 27.3097C13.6539 27.3095 13.655 27.3092 13.656 27.3089L13.6561 20.8936L10.598 20.8935C9.97409 20.8935 9.38591 20.7407 8.86885 20.4703L5.34758 22.5033C5.36551 22.568 5.38093 22.6331 5.39388 22.6984C5.39407 22.6994 5.39427 22.7004 5.39447 22.7014C5.39688 22.7137 5.3992 22.7259 5.40144 22.7381C5.40321 22.7479 5.40494 22.7576 5.40662 22.7674C5.40688 22.769 5.40714 22.7705 5.40739 22.772L5.40662 22.7674C5.41188 22.7982 5.41661 22.829 5.42079 22.8599C5.42782 22.9117 5.43331 22.9636 5.43729 23.0156L5.43851 23.0322C5.43883 23.0366 5.43912 23.041 5.43941 23.0454C5.44002 23.0546 5.44057 23.0638 5.44108 23.073C5.44142 23.0792 5.44174 23.0853 5.44204 23.0915C5.44244 23.0998 5.4428 23.1081 5.44312 23.1163C5.44339 23.123 5.44362 23.1297 5.44384 23.1364C5.44417 23.147 5.44444 23.1575 5.44465 23.168C5.4448 23.1755 5.44492 23.183 5.445 23.1904C5.44507 23.1962 5.44512 23.202 5.44515 23.2078L5.445 23.1904C5.44541 23.2252 5.44514 23.2599 5.44421 23.2945C5.44363 23.3163 5.44278 23.3381 5.44167 23.3598C5.44133 23.3664 5.44097 23.373 5.44059 23.3796C5.44021 23.386 5.43982 23.3924 5.43939 23.3989C5.43887 23.4069 5.43831 23.4149 5.43771 23.4229C5.43322 23.4833 5.42671 23.5434 5.41821 23.6033C5.41523 23.6242 5.41203 23.645 5.40859 23.6657C5.40227 23.7039 5.39514 23.7418 5.3872 23.7796C5.38628 23.784 5.38534 23.7884 5.38439 23.7928C5.37681 23.8281 5.36855 23.8631 5.35959 23.8979C5.35119 23.9306 5.34218 23.9632 5.33256 23.9956C5.33101 24.0008 5.32946 24.0059 5.32789 24.0111C5.32672 24.0149 5.32553 24.0188 5.32433 24.0227C5.31694 24.0467 5.30923 24.0705 5.30119 24.0942C5.29852 24.1021 5.29582 24.11 5.29307 24.1178C5.29152 24.1223 5.28997 24.1267 5.28841 24.1311C5.27943 24.1564 5.27004 24.1816 5.26028 24.2067C5.25926 24.2093 5.25824 24.212 5.25721 24.2146L5.26028 24.2067C5.25324 24.2248 5.24602 24.2428 5.2386 24.2608C5.23052 24.2803 5.22219 24.2998 5.21363 24.3192C5.21142 24.3242 5.20918 24.3292 5.20692 24.3343C5.19634 24.3579 5.18542 24.3813 5.17417 24.4046C5.17239 24.4082 5.17061 24.4119 5.16882 24.4156C5.15706 24.4396 5.14493 24.4635 5.13243 24.4873C5.12971 24.4924 5.12697 24.4976 5.12421 24.5028C5.12067 24.5094 5.11709 24.516 5.11349 24.5226C5.10339 24.5411 5.09307 24.5596 5.08253 24.5779L12.0024 28.573ZM16.6908 28.573L23.6106 24.5779C23.6 24.5596 23.5897 24.5411 23.5796 24.5226C23.576 24.516 23.5724 24.5094 23.5689 24.5028C23.5662 24.4976 23.5634 24.4924 23.5607 24.4873C23.5482 24.4635 23.5361 24.4396 23.5243 24.4156C23.5223 24.4114 23.5202 24.4072 23.5182 24.4031C23.5144 24.3952 23.5106 24.3873 23.5069 24.3793C23.5041 24.3735 23.5014 24.3675 23.4986 24.3616C23.4951 24.3538 23.4915 24.3461 23.488 24.3384C23.4696 24.2975 23.4523 24.2563 23.4359 24.2146C23.4349 24.212 23.4339 24.2093 23.4328 24.2067L23.4359 24.2146C23.4321 24.2048 23.4283 24.1951 23.4246 24.1853C23.4206 24.1748 23.4167 24.1643 23.4129 24.1538C23.4113 24.1494 23.4097 24.1451 23.4082 24.1408C23.4055 24.1332 23.4027 24.1256 23.4001 24.1179C23.3973 24.11 23.3946 24.1021 23.3919 24.0942C23.3907 24.0907 23.3895 24.0872 23.3884 24.0836C23.3847 24.0726 23.3811 24.0616 23.3775 24.0505C23.3757 24.0449 23.374 24.0393 23.3722 24.0338C23.3698 24.0262 23.3675 24.0186 23.3652 24.0111C23.348 23.9544 23.3326 23.8971 23.3192 23.8393C23.3173 23.8315 23.3155 23.8237 23.3138 23.8159C23.3128 23.8116 23.3119 23.8074 23.311 23.8031C23.3092 23.7953 23.3076 23.7874 23.3059 23.7796C23.304 23.7707 23.3022 23.7617 23.3004 23.7527C23.2992 23.7467 23.298 23.7406 23.2968 23.7345C23.296 23.7301 23.2952 23.7258 23.2944 23.7214C23.2921 23.7091 23.2898 23.6968 23.2877 23.6844C23.2845 23.6661 23.2815 23.6477 23.2787 23.6293C23.2774 23.6207 23.2762 23.612 23.2749 23.6033L23.2787 23.6293C23.2683 23.5609 23.2606 23.492 23.2554 23.4229C23.2548 23.4149 23.2543 23.4069 23.2537 23.3989C23.2533 23.3924 23.2529 23.386 23.2525 23.3796C23.2521 23.373 23.2518 23.3664 23.2514 23.3598C23.2477 23.2856 23.2469 23.211 23.2493 23.1364C23.2495 23.1297 23.2497 23.123 23.25 23.1163C23.2503 23.1081 23.2507 23.0998 23.2511 23.0915C23.2513 23.0863 23.2516 23.081 23.2519 23.0758C23.256 22.999 23.2635 22.9223 23.2743 22.8456C23.2772 22.8247 23.2804 22.8038 23.2839 22.7829C23.2884 22.7557 23.2933 22.7286 23.2986 22.7014C23.2988 22.7004 23.299 22.6994 23.2992 22.6984C23.3012 22.6887 23.3032 22.6789 23.3052 22.6692C23.3174 22.6108 23.3317 22.5526 23.3479 22.4947C23.3494 22.4894 23.3509 22.4842 23.3524 22.479L23.3479 22.4947C23.3497 22.4883 23.3515 22.4819 23.3534 22.4756L20.093 20.5932C19.6823 20.7859 19.2238 20.8935 18.7401 20.8935L15.0737 20.8936L15.0736 27.3188C15.0786 27.3202 15.0836 27.3216 15.0886 27.323C15.0924 27.3241 15.0962 27.3252 15.0999 27.3263C15.1103 27.3293 15.1206 27.3323 15.1308 27.3354C15.1353 27.3368 15.1398 27.3381 15.1443 27.3395C15.1541 27.3426 15.164 27.3456 15.1737 27.3488C15.1805 27.3509 15.1873 27.3531 15.194 27.3554C15.1994 27.3571 15.2047 27.3589 15.2101 27.3607C15.2177 27.3633 15.2253 27.3659 15.2329 27.3685C15.2424 27.3718 15.2519 27.3751 15.2614 27.3786C15.2643 27.3796 15.2673 27.3807 15.2703 27.3818C15.2784 27.3847 15.2865 27.3877 15.2945 27.3907C15.3139 27.3979 15.3331 27.4054 15.3523 27.4131L15.361 27.4166C15.3662 27.4187 15.3713 27.4208 15.3764 27.4229C15.3982 27.4318 15.4198 27.4411 15.4413 27.4506C15.4663 27.4617 15.4912 27.4731 15.5159 27.485C15.5214 27.4876 15.5269 27.4903 15.5324 27.493C15.5527 27.5029 15.573 27.5131 15.5931 27.5236C15.6008 27.5276 15.6085 27.5316 15.6161 27.5357C15.6222 27.5389 15.6283 27.5422 15.6343 27.5454C15.6404 27.5488 15.6466 27.5521 15.6527 27.5555C15.659 27.559 15.6653 27.5625 15.6716 27.566C15.6786 27.57 15.6855 27.5739 15.6925 27.5779C15.6976 27.5809 15.7027 27.5838 15.7078 27.5868C15.714 27.5904 15.7203 27.5941 15.7265 27.5977C15.7342 27.6024 15.742 27.607 15.7497 27.6117C15.7549 27.6149 15.7601 27.6181 15.7653 27.6213C15.7704 27.6244 15.7755 27.6276 15.7806 27.6308C15.7883 27.6356 15.796 27.6405 15.8037 27.6454C15.8243 27.6586 15.8447 27.6721 15.865 27.6858C15.8679 27.6878 15.8708 27.6898 15.8737 27.6917C15.8819 27.6973 15.89 27.7029 15.898 27.7086C15.9205 27.7244 15.9428 27.7405 15.9649 27.757C15.9805 27.7686 15.996 27.7805 16.0113 27.7925L16.0163 27.7964C16.0222 27.801 16.028 27.8056 16.0338 27.8102C16.0503 27.8234 16.0666 27.8367 16.0827 27.8502C16.0873 27.8541 16.0919 27.8579 16.0965 27.8618C16.102 27.8665 16.1074 27.8711 16.1128 27.8758C16.1192 27.8812 16.1255 27.8868 16.1318 27.8923C16.137 27.8968 16.1421 27.9014 16.1472 27.9059C16.1509 27.9093 16.1546 27.9126 16.1583 27.9159C16.1881 27.9427 16.2172 27.9702 16.2458 27.9983C16.2498 28.0023 16.2537 28.0062 16.2577 28.0101C16.2609 28.0133 16.2641 28.0165 16.2673 28.0198C16.2833 28.0359 16.2991 28.0522 16.3147 28.0688L16.3181 28.0724C16.3566 28.1132 16.3938 28.1553 16.4296 28.1985C16.4342 28.2039 16.4387 28.2094 16.4432 28.2149C16.4484 28.2213 16.4535 28.2276 16.4586 28.234C16.4627 28.2391 16.4668 28.2442 16.4709 28.2494C16.4758 28.2557 16.4808 28.262 16.4857 28.2683C16.4897 28.2734 16.4936 28.2785 16.4974 28.2835C16.5003 28.2872 16.5031 28.2909 16.5059 28.2947L16.5171 28.3095C16.5185 28.3115 16.52 28.3134 16.5214 28.3153C16.536 28.3351 16.5504 28.355 16.5645 28.3751C16.5759 28.3914 16.5872 28.4078 16.5982 28.4244C16.603 28.4315 16.6077 28.4386 16.6123 28.4457C16.6194 28.4565 16.6264 28.4673 16.6333 28.4782C16.6531 28.5094 16.6722 28.541 16.6908 28.573ZM3.38272 24.3405C3.86826 24.0602 4.10238 23.5116 4.00598 22.9901C4.00505 22.9847 4.00402 22.9794 4.00296 22.974L4.00598 22.9901C4.00399 22.9793 4.00186 22.9686 3.99959 22.9579L4.00296 22.974C4.0007 22.9626 3.99828 22.9513 3.9957 22.9399L3.99959 22.9579C3.99727 22.9469 3.9948 22.9359 3.99218 22.925L3.9957 22.9399C3.99313 22.9286 3.99041 22.9173 3.98752 22.9061L3.99218 22.925C3.98947 22.9137 3.9866 22.9023 3.98356 22.891L3.98752 22.9061C3.98433 22.8936 3.98096 22.8812 3.97738 22.8688L3.98356 22.891C3.98053 22.8797 3.97733 22.8684 3.97397 22.8572L3.97738 22.8688C3.97225 22.851 3.96672 22.8332 3.9608 22.8156C3.9575 22.8057 3.95404 22.7958 3.95045 22.786C3.94689 22.7762 3.94319 22.7664 3.93936 22.7566L3.95045 22.786C3.94571 22.7729 3.94074 22.7599 3.93555 22.7469L3.93936 22.7566C3.93544 22.7465 3.93138 22.7365 3.92719 22.7266L3.93555 22.7469C3.93016 22.7334 3.92453 22.72 3.91865 22.7067L3.92719 22.7266C3.92245 22.7153 3.91754 22.704 3.91246 22.6929L3.91865 22.7067C3.9141 22.6963 3.9094 22.686 3.90456 22.6758L3.91246 22.6929C3.90722 22.6813 3.9018 22.6698 3.89619 22.6584L3.90456 22.6758C3.89971 22.6655 3.89471 22.6552 3.88957 22.645L3.89619 22.6584C3.89125 22.6483 3.88618 22.6383 3.88096 22.6283L3.88957 22.645C3.88424 22.6345 3.87876 22.624 3.87312 22.6135L3.85444 22.58C3.83117 22.5397 3.80597 22.501 3.77901 22.4641C3.77521 22.4588 3.77134 22.4536 3.76744 22.4484L3.77901 22.4641C3.77183 22.4542 3.76453 22.4445 3.75711 22.4349L3.76744 22.4484C3.76154 22.4406 3.75556 22.4328 3.74951 22.4251L3.75711 22.4349C3.74231 22.4157 3.72704 22.3971 3.7113 22.3789C3.709 22.3763 3.70665 22.3736 3.7043 22.3709L3.7113 22.3789C3.70475 22.3714 3.69813 22.3639 3.69142 22.3565L3.7043 22.3709C3.69023 22.355 3.67582 22.3394 3.66109 22.3243C3.64861 22.3115 3.63582 22.2989 3.6228 22.2866C3.61216 22.2766 3.60137 22.2667 3.59042 22.2571C3.58787 22.2547 3.58527 22.2525 3.58266 22.2502L3.59042 22.2571C3.5732 22.2419 3.55561 22.2272 3.5377 22.2131C3.53618 22.2117 3.53464 22.2105 3.53309 22.2093L3.5377 22.2131C3.13564 21.8955 2.56471 21.8365 2.09396 22.1083C1.47756 22.4642 1.26636 23.2524 1.62225 23.8688C1.97813 24.4852 2.76632 24.6964 3.38272 24.3405ZM27.0709 23.8688C27.4268 23.2524 27.2156 22.4642 26.5992 22.1083C26.086 21.812 25.4538 21.9088 25.051 22.3052C25.0379 22.3181 25.025 22.3313 25.0124 22.3449C25.0095 22.348 25.0065 22.3512 25.0036 22.3545L25.0124 22.3449C25.0045 22.3534 24.9966 22.3621 24.9889 22.3709L25.0036 22.3545C24.9959 22.3629 24.9883 22.3715 24.9808 22.3801L24.9889 22.3709C24.9817 22.379 24.9746 22.3873 24.9676 22.3957L24.9808 22.3801C24.973 22.3892 24.9653 22.3983 24.9577 22.4076L24.9676 22.3957C24.9606 22.404 24.9537 22.4125 24.9469 22.421L24.9577 22.4076C24.9494 22.4177 24.9412 22.428 24.9332 22.4385L24.9469 22.421C24.9404 22.4291 24.9341 22.4373 24.9279 22.4455L24.9332 22.4385C24.9267 22.4469 24.9204 22.4555 24.9141 22.4641L24.9279 22.4455C24.9196 22.4565 24.9114 22.4676 24.9034 22.4789L24.9141 22.4641C24.9075 22.4731 24.901 22.4823 24.8946 22.4916L24.9034 22.4789C24.8805 22.5114 24.8589 22.5451 24.8387 22.58C24.8323 22.5911 24.826 22.6023 24.82 22.6135C24.8185 22.6162 24.8171 22.619 24.8156 22.6217L24.82 22.6135C24.8142 22.6242 24.8086 22.635 24.8032 22.6458L24.8156 22.6217C24.8099 22.6326 24.8043 22.6435 24.7989 22.6544L24.8032 22.6458C24.798 22.6562 24.7929 22.6666 24.788 22.677L24.7989 22.6544C24.7933 22.6656 24.7879 22.6769 24.7827 22.6883L24.788 22.677C24.7826 22.6885 24.7774 22.7 24.7723 22.7116L24.7827 22.6883C24.7768 22.7012 24.7711 22.7142 24.7656 22.7273L24.7723 22.7116C24.7686 22.7201 24.765 22.7287 24.7615 22.7373L24.7656 22.7273C24.7571 22.7476 24.7491 22.768 24.7417 22.7886C24.7335 22.8113 24.726 22.8342 24.7191 22.8572C24.718 22.861 24.7169 22.8649 24.7157 22.8688L24.7191 22.8572C24.7158 22.8684 24.7126 22.8797 24.7096 22.891L24.7157 22.8688C24.7122 22.8812 24.7088 22.8937 24.7056 22.9061L24.7096 22.891C24.7065 22.9023 24.7036 22.9136 24.7009 22.9249L24.7056 22.9061C24.7027 22.9174 24.7 22.9287 24.6974 22.94L24.7009 22.9249C24.6983 22.9359 24.6958 22.9468 24.6935 22.9578L24.6974 22.94C24.6949 22.9513 24.6925 22.9627 24.6902 22.9741L24.6935 22.9578C24.6912 22.9686 24.6891 22.9793 24.6871 22.9901L24.6902 22.9741C24.586 23.5004 24.8199 24.0573 25.3104 24.3405C25.9268 24.6964 26.715 24.4852 27.0709 23.8688ZM14.3466 31.2152C15.0583 31.2152 15.6353 30.6382 15.6353 29.9264C15.6353 29.3687 15.2811 28.8938 14.7853 28.7143C14.7823 28.7131 14.7794 28.7121 14.7764 28.711L14.7853 28.7143C14.7754 28.7107 14.7655 28.7072 14.7554 28.7039L14.7764 28.711C14.7642 28.7067 14.7519 28.7026 14.7396 28.6987L14.7554 28.7039C14.7456 28.7006 14.7357 28.6974 14.7257 28.6943L14.7396 28.6987C14.7317 28.6961 14.7238 28.6937 14.7158 28.6913L14.7257 28.6943C14.689 28.683 14.6515 28.6734 14.6135 28.6653C14.6076 28.6641 14.6018 28.6629 14.5959 28.6618L14.6135 28.6653C14.6038 28.6633 14.594 28.6614 14.5842 28.6595L14.5959 28.6618C14.5852 28.6597 14.5744 28.6577 14.5636 28.6559L14.5842 28.6595C14.5735 28.6575 14.5628 28.6557 14.552 28.6539L14.5636 28.6559C14.5526 28.654 14.5415 28.6523 14.5303 28.6507L14.552 28.6539C14.5395 28.6519 14.527 28.6501 14.5144 28.6485L14.5303 28.6507C14.5208 28.6493 14.5113 28.6481 14.5018 28.6469L14.5144 28.6485C14.5025 28.6469 14.4906 28.6456 14.4786 28.6443L14.5018 28.6469C14.4917 28.6457 14.4816 28.6446 14.4715 28.6437L14.4786 28.6443C14.4678 28.6432 14.457 28.6423 14.4462 28.6415L14.4715 28.6437C14.4587 28.6424 14.4459 28.6414 14.433 28.6405L14.4462 28.6415C14.4359 28.6407 14.4256 28.64 14.4152 28.6395L14.433 28.6405C14.4176 28.6395 14.4022 28.6388 14.3867 28.6383L14.4152 28.6395C14.3925 28.6383 14.3696 28.6377 14.3466 28.6377L14.3112 28.6381C14.3096 28.6382 14.3079 28.6382 14.3062 28.6383L14.3112 28.6381C14.3001 28.6384 14.2891 28.6389 14.278 28.6395L14.3062 28.6383C14.2906 28.6388 14.275 28.6395 14.2595 28.6406L14.278 28.6395C14.2676 28.64 14.2573 28.6407 14.247 28.6415L14.2595 28.6406C14.2468 28.6414 14.2342 28.6424 14.2216 28.6436L14.247 28.6415C14.2361 28.6423 14.2253 28.6433 14.2145 28.6444L14.2216 28.6436C14.2113 28.6446 14.2011 28.6457 14.1908 28.647L14.2145 28.6444C14.2026 28.6456 14.1908 28.6469 14.1791 28.6485L14.1908 28.647C14.1815 28.6481 14.1721 28.6493 14.1628 28.6507L14.1791 28.6485C14.1664 28.6501 14.1537 28.6519 14.1412 28.654L14.1628 28.6507C14.1517 28.6523 14.1405 28.654 14.1295 28.6559L14.1412 28.654C14.1304 28.6557 14.1196 28.6575 14.1089 28.6595L14.1295 28.6559C14.1187 28.6577 14.1079 28.6597 14.0971 28.6618L14.1089 28.6595C14.0991 28.6614 14.0894 28.6633 14.0797 28.6653L14.0971 28.6618C14.0557 28.6699 14.015 28.68 13.9752 28.692C13.9726 28.6927 13.9701 28.6935 13.9675 28.6943L13.9752 28.692C13.9679 28.6942 13.9607 28.6964 13.9535 28.6987L13.9675 28.6943C13.9575 28.6973 13.9476 28.7005 13.9377 28.7038L13.9535 28.6987C13.9411 28.7027 13.9289 28.7068 13.9167 28.7111L13.9377 28.7038C13.9277 28.7072 13.9177 28.7106 13.9078 28.7142L13.9167 28.7111C13.8859 28.722 13.8556 28.734 13.8259 28.7472C13.8242 28.7478 13.8226 28.7485 13.821 28.7492L13.8259 28.7472C13.3735 28.9472 13.0578 29.3999 13.0578 29.9264C13.0578 30.6382 13.6348 31.2152 14.3466 31.2152Z" fill="white"/>
<path fill-rule="evenodd" clip-rule="evenodd" d="M79.1508 7.30859C84.6575 7.30859 88.6091 11.4075 88.6091 16.4738V16.5247C88.6091 21.5911 84.6066 25.7409 79.0999 25.7409C73.5932 25.7409 69.6416 21.642 69.6416 16.5757V16.5247C69.6416 11.4584 73.6441 7.30859 79.1508 7.30859ZM44.2401 7.36806C46.8346 7.36806 49.0475 8.18196 50.8535 9.63181L48.8186 12.5823C47.2415 11.4886 45.6899 10.8273 44.1892 10.8273C42.6884 10.8273 41.8999 11.514 41.8999 12.3788V12.4297C41.8999 13.5997 42.663 13.9812 45.7408 14.7697C49.3528 15.7108 51.3877 17.008 51.3877 20.1111V20.162C51.3877 23.6975 48.6915 25.6814 44.8505 25.6814C42.1543 25.6814 39.4326 24.7403 37.2959 22.8327L39.6106 20.0602C41.2131 21.3829 42.892 22.2223 44.9268 22.2223C46.5293 22.2223 47.4959 21.5863 47.4959 20.5435V20.4926C47.4959 19.5007 46.8855 18.992 43.9094 18.2289C40.3228 17.3132 38.0081 16.3213 38.0081 12.7857V12.7348C38.0081 9.50465 40.6026 7.36806 44.2401 7.36806ZM121.431 7.60591V19.2659C121.431 23.5938 118.888 25.6814 115.124 25.6814C112.352 25.6814 110.521 24.4594 109.301 23.0083L111.768 20.2588C112.785 21.3789 113.776 22.0409 115.022 22.0409C116.497 22.0409 117.413 21.1498 117.413 19.0876V11.5896L111.56 11.5897V7.60591H121.431ZM68.0362 7.60591V11.2244H62.6209V25.4436H58.7057V11.2244H53.2904V7.60591H68.0362ZM100.084 7.60591C104.284 7.60591 106.804 9.82285 106.804 13.4923V13.5433C106.804 16.4228 105.251 18.2321 102.986 19.073L107.339 25.4436H102.757L98.9387 19.7355H95.8588V25.4436H91.9388V7.60591H100.084ZM79.0999 10.9356C75.9375 10.9356 73.7443 13.4253 73.7443 16.4739V16.5247C73.7443 19.5734 75.9885 22.1139 79.1508 22.1139C82.3132 22.1139 84.5064 19.6241 84.5064 16.5755V16.5247C84.5064 13.4761 82.2622 10.9356 79.0999 10.9356ZM99.7477 11.1734H95.8631V16.2869H99.8239C101.728 16.2869 102.82 15.2693 102.82 13.7684V13.7175C102.82 12.0384 101.652 11.1734 99.7477 11.1734Z" fill="white"/>
</svg>
