<svg width="305" height="44" viewBox="0 0 305 44" fill="none" xmlns="http://www.w3.org/2000/svg">
<path d="M188.091 33.5909H196.375C201.375 33.5909 203.682 31.0114 203.682 27.4886C203.682 23.9545 201.341 21.8295 199.079 21.6705V21.4886C201.159 20.9318 202.773 19.3182 202.773 16.4091C202.773 12.9091 200.489 10.3182 195.943 10.3182H188.091V33.5909ZM190.216 31.6818V22.7159H196.466C199.591 22.7159 201.648 24.8295 201.648 27.4886C201.648 29.8977 199.966 31.6818 196.375 31.6818H190.216ZM190.216 20.8295V12.2273H195.943C199.125 12.2273 200.739 13.9432 200.739 16.4091C200.739 18.9659 198.886 20.8295 196.136 20.8295H190.216Z" fill="white"/>
<path d="M207.564 33.5909L210.052 26.5795H219.825L222.314 33.5909H224.541L216.075 10.3182H213.802L205.336 33.5909H207.564ZM210.734 24.6705L214.859 13.0795H215.018L219.143 24.6705H210.734Z" fill="white"/>
<path d="M244.383 17.5909C243.622 13.3068 240.122 10 235.167 10C229.292 10 225.11 14.6705 225.11 21.9545C225.11 29.2386 229.292 33.9091 235.167 33.9091C240.122 33.9091 243.622 30.5909 244.383 26.3182H242.247C241.599 29.5114 238.815 31.9091 235.167 31.9091C230.758 31.9091 227.167 28.4205 227.167 21.9545C227.167 15.5114 230.758 12 235.167 12C238.815 12 241.599 14.4091 242.247 17.5909H244.383Z" fill="white"/>
<path d="M248.095 33.5909H250.22V26.0341L253.322 22.5568L261.947 33.5909H264.538L254.64 21.0795L264.583 10.3182H261.788L250.424 22.8523H250.22V10.3182H248.095V33.5909Z" fill="white"/>
<path d="M282.826 10.3182V25.5795C282.826 29.2841 280.19 31.9886 276.133 31.9886C272.076 31.9886 269.44 29.2841 269.44 25.5795V10.3182H267.315V25.7273C267.303 30.4773 270.894 33.9886 276.133 33.9886C281.383 33.9886 284.951 30.4773 284.951 25.7273V10.3182H282.826Z" fill="white"/>
<path d="M289.847 33.5909H291.972V24.6932H297.393C302.313 24.6932 304.858 21.5682 304.858 17.5C304.858 13.4318 302.313 10.3182 297.358 10.3182H289.847V33.5909ZM291.972 22.7841V12.2273H297.302C300.983 12.2273 302.768 14.4432 302.768 17.5C302.768 20.5455 300.983 22.7841 297.336 22.7841H291.972Z" fill="white"/>
<path d="M19.1293 43.1777C17.1699 43.1777 15.5752 41.616 15.5222 39.6694L5.36843 33.8072C4.84041 34.0932 4.2708 34.2339 3.70672 34.242L3.65092 34.2423C2.40526 34.2409 1.19425 33.5938 0.526615 32.4375C-0.45314 30.7405 0.102108 28.5785 1.76155 27.5593V15.8351C0.102108 14.8159 -0.45314 12.6539 0.526615 10.9569C1.18428 9.81783 2.36923 9.17294 3.59517 9.15258L3.65092 9.15208C4.23318 9.15141 4.82301 9.29181 5.36845 9.58719L15.5222 3.72509C15.5746 1.79824 17.1376 0.248489 19.0696 0.217163L19.1293 0.216682C21.0888 0.216682 22.6834 1.77843 22.7365 3.72506L32.89 9.58726C33.4181 9.30127 33.9878 9.16054 34.5519 9.15245L34.6077 9.15208C35.8534 9.15351 37.0644 9.80057 37.732 10.9569C38.7117 12.6539 38.1566 14.8158 36.4972 15.835V27.5594C38.1566 28.5786 38.7117 30.7405 37.732 32.4375C37.0743 33.5766 35.8894 34.2215 34.6635 34.2418L34.6077 34.2423C34.0254 34.243 33.4355 34.1026 32.8901 33.8072L22.7365 39.6693C22.684 41.5962 21.121 43.1459 19.189 43.1773L19.1293 43.1777ZM19.1293 5.54354L19.1764 5.54291C19.1786 5.54285 19.1807 5.54279 19.1828 5.54273L19.1764 5.54291C19.1916 5.5425 19.2067 5.54189 19.2218 5.54109L19.1828 5.54273C19.199 5.54224 19.2151 5.54152 19.2311 5.54058L19.2218 5.54109C19.237 5.54028 19.2522 5.53928 19.2673 5.53807L19.2311 5.54058C19.2518 5.53937 19.2724 5.5378 19.2929 5.53586L19.2673 5.53807C19.28 5.53707 19.2926 5.53592 19.3052 5.53464L19.2929 5.53586C19.3074 5.53449 19.3219 5.53294 19.3363 5.53121L19.3052 5.53464C19.3212 5.53301 19.3372 5.53116 19.3531 5.52909L19.3363 5.53121C19.349 5.52968 19.3617 5.52802 19.3743 5.52621L19.3531 5.52909C19.3699 5.52691 19.3866 5.52448 19.4032 5.52182L19.3743 5.52621C19.3892 5.52409 19.404 5.52177 19.4187 5.51928L19.4032 5.52182C19.4176 5.51952 19.4319 5.51704 19.4462 5.51438L19.4187 5.51928C19.4332 5.51683 19.4476 5.51419 19.4619 5.51139L19.4462 5.51438C19.4592 5.51195 19.4722 5.50937 19.4852 5.50664L19.4619 5.51139C19.5161 5.50076 19.5694 5.48758 19.6217 5.47197C19.6261 5.4707 19.6305 5.46937 19.6348 5.46803L19.6217 5.47197C19.6323 5.4688 19.6429 5.46553 19.6534 5.46215L19.6348 5.46803C19.6481 5.46395 19.6613 5.45972 19.6745 5.45533L19.6534 5.46215C19.6699 5.45689 19.6862 5.45139 19.7024 5.44564L19.6745 5.45533C19.6878 5.45088 19.7011 5.44627 19.7143 5.44149L19.7024 5.44564C20.3697 5.20965 20.8477 4.57325 20.8477 3.8252C20.8477 2.87619 20.0783 2.10686 19.1293 2.10686C18.1803 2.10686 17.411 2.87619 17.411 3.8252C17.411 4.52466 17.8289 5.12651 18.4286 5.39467C18.4307 5.39579 18.4328 5.39675 18.435 5.3977L18.4286 5.39467C18.4665 5.41159 18.505 5.42718 18.5443 5.44138C18.5483 5.44293 18.5522 5.44435 18.5562 5.44576L18.5443 5.44138C18.5575 5.44617 18.5708 5.45079 18.5842 5.45527L18.5562 5.44576C18.5725 5.45148 18.5888 5.45698 18.6052 5.46222L18.5842 5.45527C18.5973 5.45967 18.6106 5.46392 18.6239 5.46801L18.6052 5.46222C18.6148 5.46529 18.6245 5.46827 18.6341 5.47117L18.6239 5.46801C18.6729 5.48306 18.7227 5.49597 18.7734 5.50665C18.7812 5.50828 18.789 5.50986 18.7968 5.51139L18.7734 5.50665C18.7864 5.50938 18.7994 5.51195 18.8124 5.51438L18.7968 5.51139C18.8111 5.51419 18.8255 5.51682 18.8399 5.51926L18.8124 5.51438C18.8267 5.51704 18.841 5.51953 18.8554 5.52184L18.8399 5.51926C18.8547 5.52176 18.8694 5.52407 18.8843 5.52619L18.8554 5.52184C18.8722 5.52452 18.8891 5.52697 18.906 5.52916L18.8843 5.52619C18.8967 5.52797 18.9092 5.52961 18.9217 5.53111L18.906 5.52916C18.9217 5.5312 18.9374 5.53302 18.9533 5.53463L18.9217 5.53111C18.9369 5.53294 18.9522 5.53458 18.9675 5.53601L18.9533 5.53463C18.9657 5.5359 18.9782 5.53704 18.9908 5.53804L18.9675 5.53601C18.9872 5.53785 19.007 5.53936 19.0268 5.54053L18.9908 5.53804C19.0061 5.53926 19.0216 5.54029 19.037 5.54111L19.0268 5.54053C19.043 5.54148 19.0593 5.54221 19.0756 5.54272L19.037 5.54111C19.0676 5.54272 19.0984 5.54354 19.1293 5.54354ZM24.7152 17.3367L31.1076 13.6461C31.1017 13.6225 31.0959 13.5989 31.0904 13.5752C31.0731 13.5004 31.0582 13.4252 31.0458 13.3498C31.0412 13.3223 31.037 13.2947 31.0331 13.267C31.0188 13.1658 31.0089 13.0644 31.0033 12.9631C31.0031 12.9602 31.003 12.9574 31.0028 12.9546L31.0033 12.9631C31.0024 12.9462 31.0015 12.9292 31.0008 12.9122C31.0004 12.9016 31 12.8909 30.9997 12.8803C30.9965 12.7814 30.9974 12.6826 31.0023 12.5841C31.0027 12.576 31.0032 12.568 31.0036 12.5599C31.0042 12.5494 31.0049 12.5389 31.0056 12.5283C31.0062 12.5192 31.0068 12.51 31.0075 12.5009C31.0125 12.4324 31.0194 12.3642 31.0283 12.2963C31.0305 12.2793 31.0329 12.2623 31.0353 12.2454C31.0373 12.2314 31.0395 12.2175 31.0416 12.2035C31.0491 12.1558 31.0576 12.1083 31.0669 12.061C31.0687 12.0524 31.0704 12.0437 31.0722 12.0351C31.0743 12.0247 31.0765 12.0145 31.0787 12.0042C31.0811 11.9931 31.0835 11.982 31.086 11.9709C31.088 11.9622 31.09 11.9534 31.092 11.9446C31.0947 11.933 31.0975 11.9214 31.1003 11.9098C31.1022 11.9018 31.1042 11.8939 31.1062 11.8859C31.1204 11.8291 31.136 11.7727 31.1529 11.7166C31.1546 11.711 31.1563 11.7055 31.158 11.6999C31.1622 11.6863 31.1665 11.6727 31.1708 11.6591C31.1736 11.6505 31.1763 11.6419 31.1792 11.6334C31.1825 11.6233 31.1858 11.6132 31.1892 11.6032C31.1915 11.5966 31.1937 11.59 31.196 11.5835C31.2008 11.5695 31.2057 11.5555 31.2107 11.5416C31.2125 11.5364 31.2144 11.5312 31.2163 11.526C31.221 11.513 31.2258 11.5002 31.2306 11.4874C31.2335 11.4797 31.2365 11.4719 31.2394 11.4642C31.243 11.4549 31.2466 11.4457 31.2502 11.4365C31.2623 11.4057 31.2749 11.3751 31.2878 11.3447C31.2944 11.3292 31.3011 11.3138 31.3079 11.2985C31.3092 11.2955 31.3105 11.2925 31.3118 11.2896C31.3181 11.2756 31.3243 11.2618 31.3307 11.2479C31.3337 11.2414 31.3368 11.2349 31.3398 11.2284C31.3469 11.2132 31.3541 11.198 31.3615 11.1829C31.3623 11.1812 31.3632 11.1794 31.364 11.1777C31.3709 11.1636 31.3779 11.1494 31.385 11.1354C31.3888 11.1277 31.3927 11.1202 31.3965 11.1126C31.4085 11.0893 31.4207 11.066 31.4332 11.0429C31.4489 11.0139 31.4649 10.9852 31.4813 10.9567L22.2549 5.62974L22.2359 5.66218C22.2347 5.66431 22.2334 5.66643 22.2321 5.66855C22.216 5.6957 22.1995 5.72255 22.1827 5.74916C22.1776 5.75721 22.1725 5.76522 22.1674 5.77322C22.1627 5.78048 22.158 5.78777 22.1533 5.79504C22.1478 5.80336 22.1424 5.81165 22.1369 5.81992C22.1328 5.82597 22.1288 5.832 22.1248 5.83801C22.0488 5.95087 21.9666 6.05923 21.8786 6.16256C21.8727 6.16951 21.8668 6.17637 21.8609 6.1832C21.855 6.19001 21.8491 6.19681 21.8432 6.20359C21.8367 6.21103 21.8301 6.21846 21.8235 6.22586C21.8172 6.23289 21.8109 6.23988 21.8046 6.24684C21.7987 6.25343 21.7927 6.25999 21.7867 6.26653C21.7667 6.2882 21.7466 6.30964 21.7261 6.33082C21.7059 6.35178 21.6854 6.37249 21.6647 6.39296C21.5975 6.45928 21.5277 6.52299 21.4556 6.58393C21.4465 6.5916 21.4373 6.59925 21.4281 6.60685C21.4229 6.6112 21.4176 6.61551 21.4124 6.6198C21.4038 6.62685 21.3951 6.63387 21.3864 6.64086C21.3793 6.64658 21.3721 6.65228 21.365 6.65794C21.3583 6.66322 21.3516 6.66849 21.3448 6.67373C21.3362 6.68044 21.3275 6.68714 21.3188 6.69379C21.312 6.69901 21.3052 6.70418 21.2984 6.70932C21.2893 6.71615 21.2802 6.72294 21.2711 6.72969C21.2655 6.7338 21.2599 6.73792 21.2543 6.74202C21.2427 6.75047 21.2311 6.75881 21.2195 6.76709C21.2156 6.76988 21.2116 6.77267 21.2077 6.77545C21.1649 6.80566 21.1214 6.83497 21.0772 6.86333C21.051 6.88017 21.0247 6.89661 20.9981 6.91272C20.9699 6.92982 20.9415 6.94651 20.9129 6.96283C20.904 6.96793 20.8949 6.97303 20.8859 6.97809C20.8783 6.98228 20.8709 6.9864 20.8635 6.99049C20.8564 6.99435 20.8493 6.99824 20.8421 7.00211C20.8313 7.00793 20.8206 7.01366 20.8098 7.01934C20.8006 7.02422 20.7913 7.02906 20.782 7.03387C20.7771 7.03638 20.7722 7.03888 20.7673 7.04138C20.7554 7.0475 20.7434 7.05353 20.7313 7.0595C20.7223 7.06397 20.7133 7.06842 20.7042 7.07283C20.6985 7.07558 20.6929 7.07832 20.6872 7.08103C20.6739 7.08743 20.6605 7.09375 20.647 7.09999C20.6424 7.10212 20.6378 7.10425 20.6332 7.10636C20.6221 7.11147 20.6109 7.11652 20.5997 7.12152C20.5744 7.13285 20.549 7.14386 20.5234 7.15459C20.4944 7.16673 20.4653 7.17849 20.4359 7.18989C20.4197 7.19621 20.4034 7.2024 20.3871 7.20848C20.3403 7.22588 20.2931 7.24231 20.2455 7.25779C20.2398 7.25962 20.2342 7.26144 20.2285 7.26325C20.217 7.26694 20.2054 7.27057 20.1938 7.27414C20.186 7.27655 20.1781 7.27895 20.1702 7.28132C20.1576 7.28511 20.145 7.28883 20.1324 7.29248C20.1267 7.29412 20.121 7.29575 20.1153 7.29737C20.1098 7.29893 20.1042 7.30049 20.0987 7.30202L20.0987 14.2514C22.073 14.4955 23.7685 15.6718 24.7152 17.3367ZM13.872 17.4832C14.7553 15.8244 16.3526 14.6493 18.2086 14.3071L18.2086 7.3152C18.2051 7.31428 18.2016 7.31335 18.1981 7.31242C18.1943 7.3114 18.1904 7.31036 18.1865 7.30931C18.1709 7.30511 18.1555 7.30082 18.14 7.29643C18.135 7.29499 18.1299 7.29353 18.1248 7.29206C18.111 7.28807 18.0973 7.28402 18.0836 7.27988C18.0777 7.27808 18.0717 7.27625 18.0657 7.27441C18.0521 7.27023 18.0386 7.26598 18.0252 7.26166C18.0191 7.25972 18.0131 7.25778 18.0072 7.25583C17.9972 7.25259 17.9873 7.24928 17.9773 7.24593C17.9669 7.24241 17.9565 7.23886 17.9461 7.23527C17.9342 7.23115 17.9224 7.22698 17.9107 7.22276C17.9064 7.22122 17.902 7.21965 17.8977 7.21807C17.8862 7.21389 17.8748 7.20969 17.8634 7.20543C17.8538 7.20182 17.8441 7.19816 17.8345 7.19447C17.8244 7.19056 17.8142 7.1866 17.804 7.18258C17.7975 7.18001 17.791 7.17742 17.7845 7.17481C17.775 7.17098 17.7656 7.16714 17.7561 7.16326C17.7219 7.14915 17.6879 7.13454 17.6542 7.11943C17.6077 7.09855 17.5616 7.07671 17.5161 7.05392C17.5059 7.04883 17.4958 7.04368 17.4856 7.03848C17.4797 7.03543 17.4737 7.03237 17.4678 7.0293C17.4598 7.02511 17.4517 7.0209 17.4438 7.01667C17.4319 7.01038 17.42 7.004 17.4081 6.99756C17.404 6.99533 17.4 6.99313 17.396 6.99092C17.3844 6.98459 17.3729 6.97817 17.3614 6.97168C17.3545 6.96783 17.3477 6.96397 17.3409 6.96009C17.3301 6.95388 17.3192 6.94759 17.3084 6.94125C17.3029 6.93803 17.2975 6.93483 17.2921 6.93163C17.2796 6.92426 17.2671 6.91677 17.2547 6.90921C17.2513 6.90712 17.248 6.90507 17.2446 6.90302C17.2351 6.8972 17.2256 6.89128 17.2161 6.88533C17.2049 6.8783 17.1938 6.87126 17.1827 6.86416C17.1565 6.84734 17.1305 6.83016 17.1047 6.81267C17.1009 6.81005 17.097 6.80741 17.0931 6.80476C17.0847 6.79903 17.0764 6.7933 17.0682 6.78753C17.0214 6.7549 16.9754 6.72119 16.9302 6.68643C16.8907 6.65601 16.8519 6.62485 16.8138 6.59291C16.8102 6.58995 16.8067 6.587 16.8032 6.58405C16.6241 6.43293 16.46 6.26464 16.3132 6.08176C16.3075 6.0745 16.3017 6.06725 16.2959 6.05996C16.29 6.05254 16.2842 6.04507 16.2783 6.03757C16.272 6.02942 16.2657 6.02123 16.2595 6.01302C16.254 6.00587 16.2485 5.99872 16.2432 5.99155C16.2385 5.98534 16.2339 5.9791 16.2292 5.97285C16.2207 5.96143 16.2123 5.94998 16.204 5.93848C16.2013 5.93464 16.1985 5.93076 16.1957 5.92687C16.127 5.83119 16.0629 5.73204 16.0037 5.62971L6.77727 10.9566C6.79372 10.9852 6.80977 11.0139 6.82541 11.0429C6.82963 11.0507 6.83382 11.0585 6.83797 11.0663C6.84148 11.073 6.84495 11.0795 6.8484 11.0861C6.86392 11.1158 6.87901 11.1457 6.89367 11.1758C6.8956 11.1797 6.89753 11.1837 6.89945 11.1877C6.91577 11.2214 6.93154 11.2554 6.94677 11.2896C6.95008 11.297 6.95333 11.3044 6.95656 11.3117C6.97036 11.3433 6.98372 11.375 6.99662 11.4069L6.99813 11.4107C7.00218 11.4207 7.0062 11.4308 7.01017 11.441C7.0132 11.4487 7.0162 11.4564 7.01917 11.4641C7.03047 11.4935 7.04139 11.5231 7.05192 11.5527C7.05394 11.5584 7.05599 11.5643 7.05802 11.5701C7.06187 11.5811 7.06564 11.5921 7.06936 11.603C7.08015 11.6349 7.09051 11.667 7.10041 11.6992C7.10221 11.7051 7.10398 11.7109 7.10574 11.7167C7.11431 11.745 7.12254 11.7735 7.13042 11.8021C7.14028 11.8379 7.14959 11.8738 7.15834 11.9098C7.16588 11.9408 7.17302 11.972 7.17974 12.0033C7.18108 12.0095 7.18239 12.0157 7.18369 12.0219C7.19493 12.0754 7.20496 12.1293 7.21376 12.1834C7.21988 12.2209 7.22539 12.2586 7.23032 12.2963C7.2392 12.3642 7.24615 12.4324 7.25117 12.5009C7.25184 12.5101 7.25248 12.5193 7.25309 12.5286C7.25377 12.5391 7.25441 12.5495 7.25501 12.56C7.25546 12.568 7.2559 12.5761 7.2563 12.5841C7.258 12.6181 7.25922 12.652 7.25996 12.686C7.26074 12.722 7.26099 12.7581 7.26069 12.7941C7.26062 12.8028 7.26052 12.8115 7.26039 12.8201C7.26025 12.8288 7.26009 12.8374 7.25989 12.846C7.25964 12.8574 7.25932 12.8689 7.25896 12.8803C7.25862 12.8908 7.25823 12.9014 7.2578 12.9119C7.25741 12.9214 7.25699 12.9308 7.25653 12.9403C7.25588 12.9535 7.25516 12.9668 7.25436 12.9801C7.25386 12.9884 7.25333 12.9968 7.25277 13.0052C7.25249 13.0093 7.25221 13.0134 7.25192 13.0176L7.25029 13.0397C7.24303 13.1344 7.23199 13.2291 7.21711 13.3236C7.21496 13.3372 7.21273 13.3509 7.21041 13.3645C7.20897 13.373 7.20748 13.3816 7.20597 13.3902C7.20481 13.3967 7.20365 13.4032 7.20247 13.4096C7.19933 13.4268 7.19606 13.4441 7.19266 13.4613C7.19254 13.4618 7.19244 13.4623 7.19234 13.4629L7.19266 13.4613C7.18294 13.5104 7.17217 13.5594 7.16033 13.6084L13.872 17.4832ZM35.4661 14.2493C36.288 13.7748 36.5696 12.7239 36.0951 11.902C35.6206 11.0802 34.5696 10.7986 33.7478 11.2731C33.1004 11.6468 32.7882 12.3782 32.9168 13.0736C32.918 13.081 32.9194 13.0883 32.9209 13.0955L32.9168 13.0736C32.9194 13.088 32.9222 13.1023 32.9253 13.1166L32.9209 13.0955C32.9241 13.1119 32.9276 13.1282 32.9314 13.1445L32.9253 13.1166C32.9284 13.1312 32.9317 13.1458 32.9351 13.1604L32.9314 13.1445C32.9348 13.1593 32.9384 13.1741 32.9422 13.1889L32.9351 13.1604C32.9389 13.1763 32.943 13.1921 32.9472 13.2079L32.9422 13.1889C32.9462 13.2044 32.9504 13.2199 32.9549 13.2354L32.9472 13.2079C32.9511 13.2222 32.9552 13.2366 32.9594 13.2509L32.9549 13.2354C32.9691 13.2845 32.9855 13.3333 33.0042 13.3814C33.0075 13.39 33.0109 13.3986 33.0144 13.4072L33.0042 13.3814C33.0107 13.3981 33.0174 13.4148 33.0245 13.4313L33.0144 13.4072C33.0193 13.4192 33.0244 13.4313 33.0296 13.4433L33.0245 13.4313C33.0313 13.4475 33.0385 13.4636 33.0458 13.4796L33.0296 13.4433C33.0365 13.4593 33.0437 13.4752 33.0512 13.491L33.0458 13.4796C33.0527 13.4945 33.0598 13.5093 33.0672 13.5241L33.0512 13.491C33.0577 13.505 33.0645 13.5189 33.0715 13.5327L33.0672 13.5241C33.0833 13.5565 33.1005 13.5887 33.1188 13.6204C33.1422 13.6609 33.1671 13.7003 33.1934 13.7383C33.1988 13.7463 33.2044 13.7542 33.21 13.7621L33.1934 13.7383C33.2019 13.7507 33.2106 13.7629 33.2194 13.775L33.21 13.7621C33.2196 13.7755 33.2293 13.7887 33.2392 13.8018L33.2194 13.775C33.2277 13.7865 33.2362 13.7978 33.2448 13.8091L33.2392 13.8018C33.2471 13.8121 33.255 13.8223 33.263 13.8323L33.2448 13.8091C33.2556 13.823 33.2665 13.8368 33.2776 13.8504L33.263 13.8323C33.2721 13.8438 33.2813 13.855 33.2906 13.8662L33.2776 13.8504C33.2883 13.8635 33.2992 13.8765 33.3103 13.8892L33.2906 13.8662C33.3 13.8774 33.3095 13.8884 33.3191 13.8994L33.3103 13.8892C33.3212 13.9018 33.3322 13.9142 33.3434 13.9263L33.3191 13.8994C33.3295 13.9111 33.34 13.9227 33.3506 13.9341L33.3434 13.9263C33.3625 13.9471 33.382 13.9673 33.402 13.9869C33.9389 14.5154 34.7819 14.6444 35.4661 14.2493ZM4.74693 14.0859L4.77745 14.0602C4.78092 14.0571 4.78439 14.0541 4.78784 14.0511L4.77739 14.0601C4.79501 14.0448 4.81235 14.0292 4.8294 14.0131C4.8456 13.9979 4.86155 13.9823 4.8772 13.9663C4.89334 13.9499 4.90924 13.933 4.92484 13.9158C4.92878 13.9114 4.9327 13.907 4.9366 13.9026L4.92484 13.9158C4.93425 13.9054 4.94355 13.8948 4.95274 13.8842L4.9366 13.9026C4.95837 13.8781 4.97949 13.8528 4.99995 13.8269C5.0033 13.8226 5.00666 13.8183 5.01001 13.814L4.99995 13.8269C5.008 13.8166 5.01596 13.8063 5.0238 13.7959L5.01001 13.814C5.01968 13.8015 5.02919 13.7888 5.03855 13.776L5.0238 13.7959C5.06561 13.7403 5.10438 13.6818 5.13982 13.6204C5.15545 13.5933 5.17028 13.5659 5.18431 13.5383C5.18812 13.5308 5.19184 13.5234 5.19551 13.5159L5.18431 13.5383C5.19198 13.5232 5.19941 13.508 5.2066 13.4928L5.19551 13.5159C5.20299 13.5006 5.21022 13.4853 5.21721 13.4699L5.2066 13.4928C5.21327 13.4787 5.21973 13.4645 5.22599 13.4502L5.21721 13.4699C5.22317 13.4568 5.22895 13.4436 5.23454 13.4304L5.22599 13.4502C5.23363 13.4328 5.24096 13.4154 5.24798 13.3978L5.23454 13.4304C5.24068 13.416 5.2466 13.4015 5.25231 13.3869L5.24798 13.3978C5.2528 13.3858 5.25747 13.3737 5.262 13.3616L5.25231 13.3869C5.25856 13.371 5.26455 13.355 5.27028 13.339L5.28531 13.2952C5.29014 13.2805 5.29477 13.2657 5.29919 13.2509C5.30074 13.2457 5.30225 13.2405 5.30374 13.2354L5.29919 13.2509C5.30346 13.2366 5.30753 13.2223 5.3114 13.208L5.30374 13.2354C5.3082 13.2199 5.31244 13.2043 5.31644 13.1888L5.3114 13.208C5.31567 13.1922 5.3197 13.1764 5.3235 13.1605L5.31644 13.1888C5.32024 13.174 5.32383 13.1593 5.32721 13.1445L5.3235 13.1605C5.327 13.1459 5.3303 13.1313 5.33341 13.1167L5.32721 13.1445C5.33095 13.1282 5.33444 13.1118 5.33769 13.0955L5.33341 13.1167C5.33644 13.1024 5.33929 13.088 5.34196 13.0737L5.33769 13.0955C5.4769 12.3936 5.16502 11.6508 4.51086 11.2731C3.68899 10.7986 2.63807 11.0802 2.16356 11.902C1.68905 12.7239 1.97064 13.7748 2.79251 14.2493C3.43175 14.6184 4.20955 14.5301 4.74693 14.0859ZM6.16753 28.045L10.2612 25.6817C9.56514 24.8248 9.14799 23.7322 9.14799 22.5422C9.14799 20.7513 10.0927 19.181 11.511 18.3026L6.25066 15.2658C6.16951 15.3501 6.08474 15.4299 5.99678 15.5051C5.94398 15.5502 5.89004 15.5937 5.83503 15.6354C5.81815 15.6482 5.80117 15.6609 5.78408 15.6734C5.72868 15.7139 5.67216 15.7528 5.61469 15.79L5.6129 15.7912C5.60238 15.7979 5.59183 15.8047 5.58125 15.8114C5.53203 15.8424 5.4821 15.8723 5.43154 15.9009C5.41238 15.9117 5.39306 15.9224 5.37365 15.9329C5.34799 15.9468 5.32223 15.9604 5.29632 15.9736L5.29401 15.9748C5.24042 16.0021 5.1862 16.0281 5.13142 16.0527C5.07563 16.0777 5.01927 16.1013 4.96238 16.1234L4.95953 16.1245C4.95442 16.1265 4.9493 16.1285 4.94418 16.1304C4.92028 16.1396 4.89632 16.1485 4.87227 16.1571C4.85148 16.1646 4.8306 16.1718 4.80965 16.1789C4.78373 16.1877 4.75775 16.1962 4.73167 16.2043C4.72694 16.2058 4.72226 16.2073 4.71756 16.2087C4.68381 16.2192 4.64986 16.2291 4.61577 16.2386L4.61238 16.2395C4.6017 16.2424 4.59101 16.2453 4.5803 16.2482C4.5523 16.2556 4.52422 16.2628 4.49606 16.2696C4.42558 16.2865 4.35456 16.3014 4.28314 16.3141C4.23507 16.3227 4.18681 16.3303 4.13838 16.3369C4.13074 16.338 4.12318 16.339 4.11562 16.34C4.08311 16.3442 4.05051 16.348 4.01785 16.3514L4.01355 16.3518C4.01025 16.3521 4.00695 16.3525 4.00364 16.3528C3.96675 16.3564 3.92978 16.3595 3.89275 16.362C3.85921 16.3643 3.82564 16.3661 3.79203 16.3675C3.78473 16.3678 3.77748 16.368 3.77023 16.3683C3.7686 16.3683 3.76688 16.3684 3.76516 16.3684C3.72731 16.3697 3.68951 16.3703 3.65168 16.3703L3.6598 16.3703L3.65245 16.3703L3.65168 16.3703V27.0241C3.6899 27.0241 3.72808 27.0248 3.76621 27.026C3.81757 27.0277 3.86882 27.0305 3.91995 27.0343C4.03628 27.0431 4.15197 27.0575 4.26661 27.0774C4.38719 27.0983 4.50669 27.1253 4.62453 27.1583C4.65651 27.1672 4.68835 27.1766 4.72005 27.1865C4.76457 27.2002 4.80888 27.2149 4.85291 27.2304C4.88957 27.2433 4.92608 27.2569 4.96238 27.271C5.08362 27.3182 5.20202 27.3717 5.31745 27.4317C5.4171 27.4834 5.51462 27.5399 5.60954 27.6011C5.61681 27.6058 5.62405 27.6105 5.63128 27.6152C5.68939 27.6533 5.74651 27.6931 5.80254 27.7346C5.818 27.7461 5.83343 27.7577 5.84877 27.7695C5.89474 27.8047 5.9399 27.8411 5.98425 27.8786C6.02793 27.9156 6.07084 27.9538 6.11293 27.993C6.13128 28.0101 6.14949 28.0275 6.16753 28.045ZM32.1568 27.9827L32.1879 27.9543C32.2234 27.9222 32.2594 27.8909 32.296 27.8604L32.2973 27.8594C32.3368 27.8265 32.377 27.7945 32.4178 27.7634C32.4557 27.7345 32.4941 27.7064 32.5329 27.6792C32.5713 27.6523 32.61 27.6263 32.6492 27.6011C32.6657 27.5904 32.6825 27.5798 32.6993 27.5693C32.7557 27.5343 32.813 27.5008 32.871 27.469C32.8898 27.4588 32.9086 27.4487 32.9276 27.4388C32.9681 27.4175 33.0091 27.397 33.0503 27.3773C33.0951 27.356 33.1403 27.3356 33.1858 27.3161C33.2686 27.2807 33.3526 27.2484 33.4377 27.2193C33.4871 27.2024 33.5367 27.1866 33.5867 27.1719C33.5938 27.1698 33.601 27.1677 33.6081 27.1657C33.6202 27.1622 33.6321 27.1588 33.6441 27.1555C33.648 27.1544 33.652 27.1533 33.656 27.1522C33.6765 27.1467 33.6968 27.1413 33.7172 27.1361C33.818 27.1104 33.9199 27.0891 34.0227 27.0722C34.0555 27.0668 34.0884 27.0618 34.1213 27.0573C34.1278 27.0565 34.1343 27.0556 34.1407 27.0547C34.1753 27.0502 34.2099 27.0462 34.2446 27.0427C34.2461 27.0425 34.2477 27.0423 34.2492 27.0422C34.2883 27.0383 34.3274 27.035 34.3665 27.0323C34.4001 27.0301 34.4337 27.0283 34.4674 27.0269C34.4742 27.0266 34.481 27.0264 34.4879 27.0262C34.4903 27.0261 34.4925 27.026 34.4948 27.0259C34.532 27.0247 34.5694 27.0241 34.6069 27.0241L34.599 27.0242L34.6062 27.0241H34.6069V16.3703C34.5687 16.3703 34.5305 16.3696 34.4924 16.3684C34.4426 16.3668 34.3929 16.3641 34.3433 16.3604C34.2411 16.3529 34.1393 16.3409 34.0383 16.3248C33.9343 16.3081 33.8312 16.2869 33.7292 16.2614C33.6424 16.2396 33.5563 16.2146 33.4713 16.1864C33.339 16.1426 33.2092 16.0912 33.0826 16.0323C33.0108 15.9989 32.94 15.9631 32.8703 15.925C32.8657 15.9224 32.8611 15.9199 32.8565 15.9174L32.8703 15.925C32.8323 15.9041 32.7946 15.8826 32.7573 15.8604C32.7366 15.848 32.716 15.8355 32.6955 15.8227L32.6439 15.79C32.6267 15.7788 32.6096 15.7676 32.5926 15.7561C32.5711 15.7417 32.5501 15.7273 32.5292 15.7126C32.483 15.6801 32.4374 15.6464 32.3926 15.6116C32.3677 15.5923 32.3432 15.5728 32.319 15.5529C32.2202 15.472 32.1254 15.3855 32.0348 15.2934L25.5229 19.053C27.5962 19.3135 29.2051 21.0665 29.2397 23.2021L29.2403 23.2725C29.2403 24.2428 28.9153 25.1372 28.3683 25.8528L32.119 28.0182C32.1315 28.0062 32.1441 27.9944 32.1568 27.9827ZM18.907 25.6352L24.9874 25.6352C26.2923 25.6352 27.3501 24.5774 27.3501 23.2725C27.3501 21.9676 26.2923 20.9097 24.9873 20.9097L23.6856 20.9097L23.6157 20.0404C23.4371 17.8199 21.5762 16.0947 19.3338 16.0947C17.5426 16.0947 15.9586 17.2011 15.3243 18.8443L15.0909 19.4492L14.1312 19.4491C12.423 19.4491 11.0382 20.8339 11.0382 22.5422C11.0382 24.2504 12.423 25.6352 14.1312 25.6352H18.7509C18.7719 25.6352 18.7925 25.635 18.8125 25.6346L18.8328 25.6341L18.8801 25.635L18.907 25.6352ZM16.0038 37.7646L16.0227 37.7322C16.033 37.7148 16.0435 37.6975 16.0541 37.6802C16.0705 37.6536 16.0872 37.6272 16.1043 37.601C16.11 37.5923 16.1157 37.5837 16.1214 37.5751C16.1264 37.5675 16.1315 37.56 16.1365 37.5524C16.1523 37.5291 16.1683 37.506 16.1845 37.4831C16.2274 37.4227 16.2722 37.3636 16.3186 37.306C16.3377 37.2823 16.3571 37.2588 16.3768 37.2356C16.3835 37.2278 16.3901 37.22 16.3968 37.2123C16.4156 37.1905 16.4347 37.1689 16.454 37.1476C16.46 37.1409 16.466 37.1344 16.472 37.1278C16.4936 37.1043 16.5156 37.0811 16.5378 37.0581C16.5563 37.039 16.5751 37.0201 16.594 37.0014C16.6626 36.9337 16.7338 36.8688 16.8075 36.8068C16.8128 36.8023 16.8181 36.7978 16.8235 36.7934C16.8311 36.7871 16.8386 36.7808 16.8462 36.7746C16.8711 36.7543 16.8961 36.7344 16.9215 36.7147C16.9264 36.7109 16.9315 36.707 16.9365 36.7031C16.9445 36.697 16.9524 36.691 16.9603 36.6851C16.9693 36.6783 16.9784 36.6715 16.9876 36.6647C16.9932 36.6606 16.9988 36.6565 17.0044 36.6524C17.0159 36.6439 17.0275 36.6356 17.0392 36.6273C17.0431 36.6245 17.0471 36.6217 17.051 36.6189C17.0787 36.5994 17.1068 36.5802 17.1351 36.5613C17.1763 36.5339 17.2181 36.5074 17.2605 36.4817C17.2887 36.4646 17.3171 36.4479 17.3457 36.4316C17.3543 36.4267 17.363 36.4218 17.3717 36.4169C17.3795 36.4126 17.3873 36.4082 17.3952 36.4039C17.4022 36.4 17.4094 36.3962 17.4165 36.3923C17.4278 36.3862 17.439 36.3802 17.4503 36.3743C17.4567 36.3709 17.4631 36.3676 17.4695 36.3642C17.4786 36.3595 17.4876 36.3549 17.4967 36.3503C17.508 36.3445 17.5193 36.3389 17.5306 36.3333C17.5337 36.3317 17.5369 36.3302 17.5401 36.3286C17.553 36.3222 17.566 36.3159 17.579 36.3097C17.6033 36.2982 17.6277 36.2869 17.6522 36.2759C17.6797 36.2635 17.7074 36.2515 17.7353 36.2398C17.7664 36.2268 17.7978 36.2141 17.8293 36.2019C17.8434 36.1965 17.8575 36.1912 17.8716 36.1859C17.8983 36.176 17.9251 36.1664 17.952 36.1571C17.9608 36.1541 17.9695 36.1511 17.9783 36.1482C17.9895 36.1444 18.0008 36.1406 18.0122 36.137C18.0182 36.135 18.0241 36.1331 18.0301 36.1312C18.0417 36.1275 18.0532 36.1238 18.0648 36.1203C18.0727 36.1179 18.0805 36.1155 18.0884 36.1131C18.101 36.1093 18.1136 36.1056 18.1262 36.1019C18.132 36.1003 18.1377 36.0987 18.1434 36.097C18.1569 36.0932 18.1704 36.0895 18.184 36.0858C18.1909 36.0839 18.1977 36.0821 18.2045 36.0803C18.2058 36.08 18.2072 36.0796 18.2086 36.0792L18.2087 27.5254L14.1312 27.5254C13.2994 27.5254 12.5151 27.3215 11.8257 26.9611L7.13067 29.6717C7.15458 29.758 7.17514 29.8448 7.1924 29.9319C7.19266 29.9332 7.19292 29.9345 7.19319 29.9359C7.19641 29.9522 7.1995 29.9685 7.20248 29.9848C7.20485 29.9978 7.20716 30.0108 7.20939 30.0239C7.20974 30.0259 7.21008 30.0279 7.21042 30.0299L7.20939 30.0239C7.21641 30.0649 7.22271 30.106 7.22828 30.1471C7.23765 30.2163 7.24498 30.2855 7.25029 30.3547L7.25192 30.3769C7.25233 30.3827 7.25273 30.3886 7.25312 30.3945C7.25392 30.4068 7.25466 30.419 7.25534 30.4313C7.25579 30.4395 7.25622 30.4478 7.25662 30.456C7.25715 30.467 7.25763 30.4781 7.25806 30.4891C7.25841 30.498 7.25873 30.5069 7.25901 30.5159C7.25946 30.5299 7.25982 30.544 7.2601 30.558C7.2603 30.568 7.26045 30.5779 7.26057 30.5879C7.26066 30.5956 7.26073 30.6033 7.26077 30.611L7.26057 30.5879C7.26111 30.6342 7.26076 30.6805 7.25951 30.7267C7.25874 30.7557 7.2576 30.7847 7.25612 30.8137C7.25568 30.8225 7.2552 30.8313 7.25468 30.8401C7.25418 30.8486 7.25365 30.8572 7.25309 30.8658C7.25239 30.8765 7.25164 30.8872 7.25084 30.8979C7.24486 30.9784 7.23617 31.0586 7.22484 31.1383C7.22088 31.1662 7.21661 31.194 7.21202 31.2216C7.20359 31.2725 7.19408 31.3231 7.1835 31.3735C7.18227 31.3793 7.18102 31.3852 7.17975 31.3911C7.16965 31.4381 7.15863 31.4848 7.14668 31.5312C7.13549 31.5748 7.12347 31.6182 7.11064 31.6614C7.10858 31.6683 7.10651 31.6752 7.10441 31.6821C7.10286 31.6872 7.10127 31.6924 7.09967 31.6976C7.08982 31.7296 7.07954 31.7613 7.06882 31.793C7.06526 31.8035 7.06165 31.8139 7.05799 31.8244C7.05592 31.8304 7.05386 31.8362 7.05178 31.8421C7.0398 31.8758 7.02728 31.9095 7.01427 31.943C7.01291 31.9464 7.01155 31.9499 7.01017 31.9534L7.01427 31.943C7.00489 31.9671 6.99525 31.9911 6.98536 32.015C6.97459 32.0411 6.96348 32.0671 6.95206 32.0929C6.94912 32.0996 6.94613 32.1063 6.94312 32.113C6.92901 32.1445 6.91446 32.1757 6.89946 32.2067C6.89709 32.2116 6.89471 32.2165 6.89232 32.2214C6.87664 32.2535 6.86047 32.2854 6.84381 32.317C6.84018 32.3239 6.83652 32.3308 6.83284 32.3377C6.82812 32.3465 6.82335 32.3554 6.81855 32.3642C6.80509 32.3889 6.79132 32.4134 6.77727 32.4378L16.0038 37.7646ZM22.2549 37.7647L31.4814 32.4378C31.4673 32.4134 31.4535 32.3889 31.4401 32.3642C31.4353 32.3554 31.4305 32.3465 31.4258 32.3377C31.4221 32.3308 31.4184 32.3239 31.4148 32.317C31.3982 32.2854 31.382 32.2535 31.3663 32.2214C31.3636 32.2159 31.3609 32.2103 31.3582 32.2047C31.3531 32.1942 31.3481 32.1837 31.3431 32.1731C31.3394 32.1653 31.3357 32.1573 31.3321 32.1494C31.3273 32.1391 31.3226 32.1288 31.318 32.1185C31.2934 32.064 31.2703 32.009 31.2485 31.9535C31.2471 31.9499 31.2457 31.9464 31.2443 31.9429L31.2485 31.9535C31.2434 31.9404 31.2383 31.9274 31.2334 31.9143C31.2281 31.9004 31.2229 31.8864 31.2178 31.8724C31.2156 31.8665 31.2135 31.8608 31.2115 31.855C31.2079 31.8449 31.2042 31.8347 31.2007 31.8245C31.197 31.8139 31.1934 31.8035 31.1898 31.7929C31.1882 31.7882 31.1866 31.7835 31.185 31.7788C31.1801 31.7642 31.1753 31.7494 31.1706 31.7346C31.1682 31.7272 31.1659 31.7198 31.1635 31.7123C31.1604 31.7022 31.1573 31.6922 31.1542 31.6821C31.1312 31.6065 31.1108 31.5301 31.0928 31.4531C31.0903 31.4427 31.088 31.4322 31.0856 31.4218C31.0843 31.4161 31.0831 31.4105 31.0818 31.4048C31.0796 31.3944 31.0773 31.3839 31.0751 31.3734C31.0726 31.3615 31.0702 31.3496 31.0678 31.3376C31.0662 31.3295 31.0646 31.3214 31.063 31.3133C31.0619 31.3075 31.0608 31.3017 31.0597 31.2959C31.0566 31.2795 31.0537 31.263 31.0508 31.2465C31.0466 31.2221 31.0426 31.1976 31.0389 31.1731C31.0371 31.1615 31.0354 31.15 31.0338 31.1384L31.0389 31.1731C31.025 31.0818 31.0146 30.99 31.0078 30.8979C31.007 30.8872 31.0062 30.8765 31.0055 30.8658C31.005 30.8572 31.0044 30.8486 31.0039 30.8401C31.0034 30.8313 31.0029 30.8225 31.0025 30.8137C30.9975 30.7147 30.9965 30.6154 30.9996 30.5159C30.9999 30.5069 31.0002 30.498 31.0006 30.4891C31.001 30.4781 31.0015 30.467 31.002 30.456C31.0023 30.449 31.0027 30.442 31.0031 30.435C31.0086 30.3327 31.0186 30.2303 31.033 30.1282C31.0369 30.1003 31.0412 30.0724 31.0458 30.0446C31.0517 30.0083 31.0583 29.9721 31.0654 29.9359C31.0657 29.9345 31.066 29.9332 31.0662 29.9318C31.0688 29.9189 31.0715 29.9059 31.0742 29.8929C31.0905 29.8151 31.1095 29.7375 31.1311 29.6603C31.1331 29.6532 31.1351 29.6463 31.1371 29.6393L31.1311 29.6603C31.1335 29.6518 31.136 29.6432 31.1384 29.6347L26.7912 27.125C26.2436 27.3818 25.6322 27.5254 24.9874 27.5254L20.0988 27.5254L20.0987 36.0924C20.1054 36.0943 20.1121 36.0961 20.1187 36.098C20.1238 36.0994 20.1288 36.1009 20.1338 36.1024C20.1476 36.1063 20.1613 36.1104 20.175 36.1145C20.181 36.1163 20.187 36.1182 20.1929 36.12C20.2061 36.1241 20.2192 36.1282 20.2322 36.1324C20.2413 36.1352 20.2503 36.1382 20.2593 36.1411C20.2664 36.1435 20.2736 36.1459 20.2807 36.1483C20.2908 36.1517 20.301 36.1551 20.311 36.1586C20.3237 36.163 20.3364 36.1675 20.3491 36.1721C20.353 36.1735 20.357 36.1749 20.361 36.1763C20.3718 36.1803 20.3825 36.1842 20.3933 36.1883C20.4191 36.1979 20.4448 36.2079 20.4703 36.2181L20.4819 36.2227C20.4888 36.2255 20.4956 36.2283 20.5025 36.2312C20.5315 36.2431 20.5603 36.2554 20.5889 36.2681C20.6223 36.2829 20.6555 36.2982 20.6885 36.314C20.6958 36.3175 20.7031 36.321 20.7104 36.3246C20.7376 36.3379 20.7646 36.3515 20.7914 36.3654C20.8017 36.3708 20.8119 36.3761 20.8221 36.3816C20.8302 36.3859 20.8383 36.3902 20.8463 36.3946C20.8545 36.399 20.8627 36.4035 20.8709 36.408C20.8793 36.4126 20.8876 36.4173 20.896 36.422C20.9053 36.4273 20.9146 36.4325 20.9239 36.4379C20.9307 36.4418 20.9375 36.4457 20.9443 36.4497C20.9526 36.4545 20.9609 36.4594 20.9692 36.4643C20.9795 36.4705 20.9899 36.4767 21.0002 36.483C21.0072 36.4872 21.0141 36.4914 21.021 36.4957C21.0278 36.4999 21.0346 36.5041 21.0414 36.5083C21.0517 36.5148 21.0619 36.5213 21.0721 36.5278C21.0996 36.5454 21.1269 36.5634 21.1539 36.5817C21.1578 36.5843 21.1616 36.587 21.1655 36.5896C21.1764 36.5971 21.1872 36.6046 21.1979 36.6121C21.228 36.6332 21.2577 36.6547 21.2871 36.6766C21.3079 36.6922 21.3285 36.7079 21.349 36.7239L21.3557 36.7292C21.3635 36.7353 21.3712 36.7414 21.379 36.7476C21.4009 36.7651 21.4227 36.7829 21.4442 36.8009C21.4503 36.8061 21.4565 36.8112 21.4626 36.8164C21.4699 36.8226 21.4771 36.8288 21.4843 36.835C21.4928 36.8423 21.5012 36.8497 21.5096 36.857C21.5165 36.8631 21.5234 36.8691 21.5302 36.8752C21.5351 36.8797 21.5401 36.8841 21.545 36.8885C21.5847 36.9243 21.6236 36.961 21.6616 36.9984C21.6669 37.0037 21.6722 37.0089 21.6775 37.0142C21.6817 37.0184 21.686 37.0227 21.6903 37.0271C21.7117 37.0486 21.7328 37.0703 21.7535 37.0923L21.7581 37.0972C21.8093 37.1516 21.8589 37.2077 21.9068 37.2653C21.9128 37.2726 21.9188 37.2799 21.9248 37.2872C21.9317 37.2957 21.9386 37.3042 21.9454 37.3127C21.9508 37.3194 21.9563 37.3263 21.9617 37.3332C21.9683 37.3415 21.9749 37.35 21.9815 37.3584C21.9868 37.3652 21.992 37.372 21.9972 37.3787C22.0009 37.3836 22.0047 37.3886 22.0084 37.3935L22.0233 37.4134C22.0252 37.4159 22.0272 37.4185 22.0291 37.4211C22.0486 37.4474 22.0677 37.4739 22.0865 37.5007C22.1018 37.5225 22.1168 37.5444 22.1316 37.5665C22.1379 37.576 22.1441 37.5854 22.1504 37.595C22.1598 37.6093 22.1691 37.6238 22.1783 37.6383C22.2047 37.6798 22.2302 37.722 22.2549 37.7647ZM4.51086 32.1213C5.15824 31.7476 5.4704 31.0162 5.34187 30.3208C5.34063 30.3136 5.33926 30.3065 5.33784 30.2993L5.34187 30.3208C5.33922 30.3064 5.33638 30.2921 5.33335 30.2778L5.33784 30.2993C5.33483 30.2842 5.3316 30.269 5.32817 30.2539L5.33335 30.2778C5.33026 30.2632 5.32697 30.2486 5.32347 30.234L5.32817 30.2539C5.32474 30.2388 5.32111 30.2238 5.31726 30.2087L5.32347 30.234C5.31986 30.2189 5.31602 30.2038 5.31198 30.1887L5.31726 30.2087C5.31301 30.1921 5.30851 30.1756 5.30375 30.159L5.31198 30.1887C5.30793 30.1736 5.30367 30.1586 5.29919 30.1435L5.30375 30.159C5.2969 30.1353 5.28953 30.1116 5.28163 30.0881C5.27723 30.075 5.27262 30.0618 5.26784 30.0486C5.26308 30.0355 5.25815 30.0225 5.25305 30.0094L5.26784 30.0486C5.26151 30.0312 5.25489 30.0138 5.24796 29.9965L5.25305 30.0094C5.24781 29.996 5.2424 29.9827 5.23682 29.9694L5.24796 29.9965C5.24078 29.9786 5.23327 29.9607 5.22544 29.9429L5.23682 29.9694C5.2305 29.9544 5.22395 29.9394 5.21718 29.9245L5.22544 29.9429C5.21937 29.9291 5.2131 29.9154 5.20664 29.9017L5.21718 29.9245C5.21019 29.9091 5.20296 29.8937 5.19548 29.8785L5.20664 29.9017C5.20017 29.888 5.19351 29.8743 5.18666 29.8607L5.19548 29.8785C5.1889 29.8651 5.18213 29.8517 5.17518 29.8384L5.18666 29.8607C5.17955 29.8466 5.17225 29.8326 5.16472 29.8187L5.13982 29.774C5.10879 29.7203 5.07519 29.6687 5.03925 29.6194C5.03418 29.6124 5.02902 29.6054 5.02381 29.5985L5.03925 29.6194C5.02967 29.6063 5.01994 29.5933 5.01004 29.5805L5.02381 29.5985C5.01595 29.5881 5.00798 29.5777 4.99992 29.5675L5.01004 29.5805C4.99031 29.555 4.96995 29.5301 4.94897 29.5059C4.9459 29.5023 4.94276 29.4988 4.93962 29.4952L4.94897 29.5059C4.94024 29.4958 4.9314 29.4859 4.92245 29.476L4.93962 29.4952C4.92087 29.4739 4.90166 29.4532 4.88202 29.433C4.86537 29.4159 4.84833 29.3991 4.83097 29.3827C4.81678 29.3694 4.80238 29.3563 4.78779 29.3434C4.78439 29.3403 4.78092 29.3373 4.77745 29.3343L4.78779 29.3434C4.76483 29.3232 4.74138 29.3036 4.71749 29.2848C4.71548 29.283 4.71342 29.2814 4.71135 29.2797L4.71749 29.2848C4.18142 28.8613 3.42017 28.7827 2.79251 29.1451C1.97064 29.6196 1.68905 30.6705 2.16356 31.4924C2.63807 32.3143 3.68899 32.5958 4.51086 32.1213ZM36.0951 31.4924C36.5696 30.6705 36.288 29.6196 35.4661 29.1451C34.7819 28.75 33.9389 28.8791 33.4019 29.4076C33.3845 29.4247 33.3673 29.4424 33.3505 29.4605C33.3466 29.4646 33.3426 29.469 33.3387 29.4733L33.3505 29.4605C33.3399 29.4719 33.3294 29.4834 33.3191 29.4952L33.3387 29.4733C33.3284 29.4845 33.3182 29.4959 33.3082 29.5075L33.3191 29.4952C33.3095 29.506 33.3 29.517 33.2907 29.5282L33.3082 29.5075C33.2979 29.5195 33.2876 29.5317 33.2775 29.5441L33.2907 29.5282C33.2813 29.5393 33.2721 29.5506 33.263 29.562L33.2775 29.5441C33.2664 29.5576 33.2555 29.5714 33.2448 29.5853L33.263 29.562C33.2545 29.5728 33.2461 29.5837 33.2378 29.5947L33.2448 29.5853C33.2362 29.5966 33.2277 29.6079 33.2193 29.6194L33.2378 29.5947C33.2267 29.6093 33.2158 29.6242 33.2051 29.6392L33.2193 29.6194C33.2105 29.6315 33.2019 29.6437 33.1933 29.6561L33.2051 29.6392C33.1745 29.6825 33.1457 29.7274 33.1188 29.774C33.1103 29.7888 33.1019 29.8037 33.0939 29.8187C33.0919 29.8223 33.09 29.8259 33.0881 29.8296L33.0939 29.8187C33.0862 29.833 33.0787 29.8473 33.0715 29.8617L33.0881 29.8296C33.0804 29.8441 33.073 29.8586 33.0657 29.8732L33.0715 29.8617C33.0645 29.8755 33.0578 29.8894 33.0512 29.9033L33.0657 29.8732C33.0583 29.8882 33.0512 29.9032 33.0442 29.9183L33.0512 29.9033C33.044 29.9186 33.0371 29.934 33.0304 29.9494L33.0442 29.9183C33.0363 29.9356 33.0287 29.9529 33.0214 29.9703L33.0304 29.9494C33.0254 29.9608 33.0206 29.9723 33.0158 29.9838L33.0214 29.9703C33.01 29.9974 32.9994 30.0247 32.9895 30.0521C32.9786 30.0824 32.9686 30.1129 32.9594 30.1435C32.9579 30.1487 32.9564 30.1539 32.9549 30.1591L32.9594 30.1435C32.955 30.1585 32.9507 30.1735 32.9466 30.1886L32.9549 30.1591C32.9501 30.1756 32.9456 30.1922 32.9414 30.2088L32.9466 30.1886C32.9426 30.2037 32.9388 30.2188 32.9351 30.2339L32.9414 30.2088C32.9375 30.2238 32.9339 30.2389 32.9305 30.254L32.9351 30.2339C32.9316 30.2485 32.9283 30.2631 32.9252 30.2778L32.9305 30.254C32.9271 30.2691 32.9239 30.2842 32.9209 30.2994L32.9252 30.2778C32.9222 30.2921 32.9193 30.3064 32.9167 30.3207L32.9209 30.2994C32.7819 31.0011 33.0937 31.7437 33.7478 32.1213C34.5696 32.5958 35.6206 32.3143 36.0951 31.4924ZM19.1293 41.2876C20.0783 41.2876 20.8477 40.5182 20.8477 39.5692C20.8477 38.8256 20.3753 38.1924 19.7144 37.953C19.7104 37.9515 19.7064 37.9501 19.7024 37.9487L19.7144 37.953C19.7011 37.9482 19.6878 37.9436 19.6745 37.9391L19.7024 37.9487C19.6862 37.9429 19.6698 37.9374 19.6534 37.9322L19.6745 37.9391C19.6613 37.9348 19.6481 37.9305 19.6349 37.9264L19.6534 37.9322C19.6429 37.9288 19.6323 37.9256 19.6217 37.9224L19.6349 37.9264C19.5859 37.9114 19.5359 37.8985 19.4852 37.8878C19.4774 37.8861 19.4696 37.8846 19.4618 37.883L19.4852 37.8878C19.4722 37.885 19.4593 37.8825 19.4462 37.88L19.4618 37.883C19.4475 37.8802 19.4331 37.8776 19.4187 37.8752L19.4462 37.88C19.4319 37.8774 19.4176 37.8749 19.4032 37.8726L19.4187 37.8752C19.404 37.8727 19.3892 37.8703 19.3743 37.8682L19.4032 37.8726C19.3866 37.8699 19.3699 37.8675 19.3531 37.8653L19.3743 37.8682C19.3617 37.8664 19.349 37.8648 19.3363 37.8632L19.3531 37.8653C19.3372 37.8632 19.3213 37.8614 19.3054 37.8598L19.3363 37.8632C19.3229 37.8616 19.3094 37.8602 19.2959 37.8589L19.3054 37.8598C19.291 37.8583 19.2766 37.857 19.2621 37.8559L19.2959 37.8589C19.2789 37.8572 19.2618 37.8558 19.2446 37.8547L19.2621 37.8559C19.2484 37.8549 19.2347 37.854 19.2209 37.8533L19.2446 37.8547C19.2241 37.8533 19.2035 37.8523 19.1828 37.8517L19.2209 37.8533C19.1906 37.8517 19.16 37.8509 19.1293 37.8509L19.0822 37.8515C19.08 37.8516 19.0778 37.8516 19.0756 37.8517L19.0822 37.8515C19.0674 37.8519 19.0526 37.8525 19.0379 37.8533L19.0756 37.8517C19.0547 37.8523 19.0339 37.8534 19.0132 37.8547L19.0379 37.8533C19.0241 37.854 19.0103 37.8549 18.9965 37.8559L19.0132 37.8547C18.9963 37.8559 18.9795 37.8572 18.9627 37.8588L18.9965 37.8559C18.982 37.857 18.9676 37.8583 18.9532 37.8598L18.9627 37.8588C18.949 37.8602 18.9353 37.8616 18.9217 37.8633L18.9532 37.8598C18.9374 37.8614 18.9217 37.8632 18.906 37.8653L18.9217 37.8633C18.9092 37.8648 18.8967 37.8664 18.8843 37.8682L18.906 37.8653C18.8891 37.8675 18.8722 37.8699 18.8554 37.8726L18.8843 37.8682C18.8694 37.8703 18.8546 37.8726 18.8399 37.8751L18.8554 37.8726C18.8411 37.8749 18.8267 37.8774 18.8125 37.88L18.8399 37.8751C18.8254 37.8776 18.8111 37.8802 18.7968 37.883L18.8125 37.88C18.7994 37.8825 18.7864 37.885 18.7735 37.8878L18.7968 37.883C18.7415 37.8939 18.6873 37.9073 18.6341 37.9233C18.6307 37.9243 18.6273 37.9253 18.6239 37.9263L18.6341 37.9233C18.6244 37.9262 18.6148 37.9292 18.6052 37.9323L18.6239 37.9263C18.6106 37.9304 18.5974 37.9347 18.5842 37.9391L18.6052 37.9323C18.5888 37.9375 18.5724 37.943 18.5562 37.9488L18.5842 37.9391C18.5708 37.9435 18.5575 37.9481 18.5443 37.9529L18.5562 37.9488C18.5151 37.9633 18.4747 37.9794 18.4351 37.9969C18.4328 37.9977 18.4307 37.9986 18.4285 37.9996L18.4351 37.9969C17.8319 38.2636 17.411 38.8672 17.411 39.5692C17.411 40.5182 18.1803 41.2876 19.1293 41.2876Z" fill="white"/>
<path fill-rule="evenodd" clip-rule="evenodd" d="M105.535 9C112.877 9 118.146 14.4652 118.146 21.2203V21.2882C118.146 28.0433 112.809 33.5763 105.467 33.5763C98.1247 33.5763 92.8559 28.1112 92.8559 21.3561V21.2882C92.8559 14.5331 98.1926 9 105.535 9ZM58.9872 9.07928C62.4465 9.07928 65.3971 10.1645 67.8051 12.0976L65.0919 16.0316C62.9891 14.5733 60.9203 13.6916 58.9193 13.6916C56.9183 13.6916 55.867 14.6072 55.867 15.7602V15.8281C55.867 17.3882 56.8844 17.8968 60.9881 18.9481C65.8042 20.203 68.5174 21.9326 68.5174 26.07V26.1378C68.5174 30.8519 64.9224 33.4971 59.8011 33.4971C56.2061 33.4971 52.5772 32.2423 49.7283 29.6988L52.8146 26.0021C54.9512 27.7657 57.1897 28.8849 59.9028 28.8849C62.0395 28.8849 63.3283 28.037 63.3283 26.6466V26.5787C63.3283 25.2561 62.5143 24.5779 58.5463 23.5604C53.7642 22.3395 50.6779 21.0169 50.6779 16.3028V16.235C50.6779 11.9281 54.1373 9.07928 58.9872 9.07928ZM161.908 9.39642V24.943C161.908 30.7136 158.517 33.4971 153.499 33.4971C149.804 33.4971 147.362 31.8677 145.735 29.9329L149.024 26.2669C150.38 27.7604 151.702 28.643 153.364 28.643C155.33 28.643 156.551 27.455 156.551 24.7054V14.708L148.747 14.7081V9.39642H161.908ZM90.7154 9.39642V14.2211H83.495V33.18H78.2746V14.2211H71.0543V9.39642H90.7154ZM133.446 9.39642C139.046 9.39642 142.406 12.3523 142.406 17.2449V17.3129C142.406 21.1523 140.336 23.5646 137.315 24.6858L143.119 33.18H137.01L131.919 25.5693H127.812V33.18H122.586V9.39642H133.446ZM105.467 13.836C101.25 13.836 98.3262 17.1556 98.3262 21.2205V21.2882C98.3262 25.353 101.318 28.7404 105.535 28.7404C109.751 28.7404 112.676 25.4207 112.676 21.3559V21.2882C112.676 17.2233 109.683 13.836 105.467 13.836ZM132.997 14.1531H127.818V20.971H133.099C135.638 20.971 137.094 19.6142 137.094 17.613V17.5452C137.094 15.3064 135.536 14.1531 132.997 14.1531Z" fill="white"/>
<path fill-rule="evenodd" clip-rule="evenodd" d="M175 34L175 10L176 10L176 34L175 34Z" fill="white"/>
</svg>
