<svg viewBox="0 0 64 64" fill="none" xmlns="http://www.w3.org/2000/svg">
<path fill-rule="evenodd" clip-rule="evenodd" d="M26.3076 0H37.3539C46.2134 0 49.7285 0.981957 53.1763 2.82587C56.6241 4.66978 59.3299 7.37564 61.1738 10.8234L61.3139 11.0889C63.0443 14.4107 63.975 17.9199 63.9997 26.3077V37.3541C63.9997 46.2136 63.0177 49.7287 61.1738 53.1765C59.3299 56.6244 56.6241 59.3302 53.1763 61.1741L52.9108 61.3143C49.589 63.0447 46.0798 63.9753 37.6921 64H26.6457C17.7863 64 14.2712 63.018 10.8234 61.1741C7.3756 59.3302 4.66975 56.6244 2.82585 53.1765L2.68571 52.9111C0.955313 49.5893 0.0246748 46.0801 0 37.6923V26.6459C0 17.7864 0.981952 14.2713 2.82585 10.8234C4.66975 7.37564 7.3756 4.66978 10.8234 2.82587L11.0888 2.68573C14.4107 0.955318 17.9199 0.024675 26.3076 0Z" fill="#0218A7"/>
<path d="M17.1902 16.3947C18.5047 16.3947 19.5704 15.3291 19.5704 14.0147C19.5704 12.7003 18.5047 11.6348 17.1902 11.6348C15.8757 11.6348 14.8101 12.7003 14.8101 14.0147C14.8101 15.3291 15.8757 16.3947 17.1902 16.3947Z" fill="white"/>
<path opacity="0.305727" d="M11.6361 52.365C12.5124 52.365 13.2228 51.6545 13.2228 50.7782C13.2228 49.9018 12.5124 49.1914 11.6361 49.1914C10.7597 49.1914 10.0493 49.9018 10.0493 50.7782C10.0493 51.6545 10.7597 52.365 11.6361 52.365Z" fill="white"/>
<path d="M43.636 56.065C44.9505 56.065 46.0161 54.9994 46.0161 53.6849C46.0161 52.3703 44.9505 51.3047 43.636 51.3047C42.3215 51.3047 41.2559 52.3703 41.2559 53.6849C41.2559 54.9994 42.3215 56.065 43.636 56.065Z" fill="white"/>
<path opacity="0.305727" d="M30.6771 8.46269C31.5534 8.46269 32.2639 7.75225 32.2639 6.87588C32.2639 5.9995 31.5534 5.28906 30.6771 5.28906C29.8007 5.28906 29.0903 5.9995 29.0903 6.87588C29.0903 7.75225 29.8007 8.46269 30.6771 8.46269Z" fill="white"/>
<path opacity="0.305727" d="M50.2474 51.8356C51.1237 51.8356 51.8341 51.1252 51.8341 50.2489C51.8341 49.3725 51.1237 48.6621 50.2474 48.6621C49.3711 48.6621 48.6606 49.3725 48.6606 50.2489C48.6606 51.1252 49.3711 51.8356 50.2474 51.8356Z" fill="white"/>
<path fill-rule="evenodd" clip-rule="evenodd" d="M4.67533 36.8425L58.0146 22.5503C59.398 22.1797 60.82 23.0006 61.1907 24.3841C61.5614 25.7675 60.7404 27.1895 59.3569 27.5602L6.01771 41.8523C4.63428 42.223 3.21229 41.402 2.8416 40.0186C2.47091 38.6352 3.2919 37.2132 4.67533 36.8425Z" fill="#D8DEE3"/>
<path d="M31.9972 46.4553C39.8592 46.4553 46.2327 40.0819 46.2327 32.2198C46.2327 24.3578 39.8592 17.9844 31.9972 17.9844C24.1352 17.9844 17.7617 24.3578 17.7617 32.2198C17.7617 40.0819 24.1352 46.4553 31.9972 46.4553Z" fill="#C8D3DE"/>
<path d="M31.9972 17.9844C39.8592 17.9844 46.2327 24.3578 46.2327 32.2198C46.2327 40.0819 39.8592 46.4553 31.9972 46.4553C24.1352 46.4553 17.7617 40.0819 17.7617 32.2198C17.7617 24.3578 24.1352 17.9844 31.9972 17.9844ZM31.9972 21.6996C26.187 21.6996 21.4769 26.4097 21.4769 32.2198C21.4769 38.03 26.187 42.7401 31.9972 42.7401C37.8074 42.7401 42.5175 38.03 42.5175 32.2198C42.5175 26.4097 37.8074 21.6996 31.9972 21.6996Z" fill="#FF458B"/>
<path d="M32.0161 34.8334C33.4484 34.8334 34.6094 33.6723 34.6094 32.2399C34.6094 30.8076 33.4484 29.6465 32.0161 29.6465C30.5839 29.6465 29.4229 30.8076 29.4229 32.2399C29.4229 33.6723 30.5839 34.8334 32.0161 34.8334Z" fill="#0082FF"/>
</svg>
