<svg viewBox="0 0 64 64" fill="none" xmlns="http://www.w3.org/2000/svg">
<path fill-rule="evenodd" clip-rule="evenodd" d="M26.3078 0H37.3542C46.2137 0 49.7288 0.981957 53.1766 2.82587C56.6244 4.66978 59.3303 7.37564 61.1742 10.8234L61.3144 11.0889C63.0448 14.4107 63.9754 17.9199 64.0001 26.3077V37.3541C64.0001 46.2136 63.0181 49.7287 61.1742 53.1765C59.3303 56.6244 56.6244 59.3302 53.1766 61.1741L52.9112 61.3143C49.5893 63.0447 46.0801 63.9753 37.6923 64H26.6459C17.7864 64 14.2713 63.018 10.8235 61.1741C7.37565 59.3302 4.66978 56.6244 2.82587 53.1765L2.68573 52.9111C0.955319 49.5893 0.024675 46.0801 0 37.6923V26.6459C0 17.7864 0.981958 14.2713 2.82587 10.8234C4.66978 7.37564 7.37565 4.66978 10.8235 2.82587L11.0889 2.68573C14.4108 0.955318 17.92 0.024675 26.3078 0Z" fill="#D8DEE3"/>
<path fill-rule="evenodd" clip-rule="evenodd" d="M0.177738 20.9805L10.3183 26.8356V47.267L0.0807768 41.3567C0.0310124 40.2464 0.00394243 39.0308 0 37.6907V26.6443C0 24.4571 0.059848 22.5956 0.177738 20.9805Z" fill="#FF458B"/>
<path fill-rule="evenodd" clip-rule="evenodd" d="M10.3196 6.55469L28.0139 16.7704L10.3196 26.9861L0.168457 21.1253C0.517158 16.159 1.40525 13.5017 2.78165 10.907L10.3196 6.55469Z" fill="#FFA3C5"/>
<path fill-rule="evenodd" clip-rule="evenodd" d="M64.0003 26.3087V37.3551C64.0003 38.9895 63.9669 40.4421 63.9008 41.7459L54.6943 47.0605V26.6291L63.8479 21.3438C63.9436 22.7882 63.9948 24.4255 64.0003 26.3087Z" fill="#FF458B"/>
<path fill-rule="evenodd" clip-rule="evenodd" d="M54.8468 6.34766L60.4547 9.58512C60.7075 9.9867 60.9475 10.3997 61.1744 10.824L61.3145 11.0894C62.6769 13.7048 63.5435 16.4364 63.8626 21.5737L54.8468 26.779L37.1528 16.5633L54.8468 6.34766Z" fill="#FFA3C5"/>
<path fill-rule="evenodd" clip-rule="evenodd" d="M54.847 26.6298L54.847 47.0611L37.1528 36.8454L37.1528 16.4141L54.847 26.6298Z" fill="#DC0D5B"/>
<path fill-rule="evenodd" clip-rule="evenodd" d="M10.166 26.8368L10.166 47.2682L27.8602 37.0525L27.8602 16.6211L10.166 26.8368Z" fill="#DC0D5B"/>
<path fill-rule="evenodd" clip-rule="evenodd" d="M32.4007 19.3047L50.095 29.5203L32.4007 39.7359L14.7065 29.5203L32.4007 19.3047Z" fill="#87A9FF"/>
<path fill-rule="evenodd" clip-rule="evenodd" d="M32.4006 39.5848L32.4006 60.0161L14.7066 49.8005L14.7065 29.3691L32.4006 39.5848Z" fill="#0218A7"/>
<path fill-rule="evenodd" clip-rule="evenodd" d="M32.249 39.5848L32.249 60.0161L49.9431 49.8005L49.9431 29.3691L32.249 39.5848Z" fill="#0149FF"/>
</svg>
