<svg viewBox="0 0 24 24" fill="none" xmlns="http://www.w3.org/2000/svg">
<path d="M19.6651 16.81C19.3882 17.4555 19.0461 18.0711 18.6441 18.647C18.1071 19.414 17.6661 19.944 17.3281 20.239C16.8031 20.721 16.2391 20.969 15.6361 20.983C15.2041 20.983 14.6821 20.86 14.0741 20.61C13.4641 20.361 12.9041 20.239 12.3911 20.239C11.8541 20.239 11.2781 20.361 10.6611 20.61C10.0451 20.86 9.54714 20.991 9.16614 21.003C8.58914 21.028 8.01214 20.774 7.43714 20.239C7.07014 19.919 6.61114 19.369 6.06014 18.591C5.47014 17.762 4.98514 16.797 4.60514 15.7C4.19814 14.513 3.99414 13.365 3.99414 12.253C3.99414 10.98 4.26914 9.88105 4.82014 8.96105C5.23689 8.23851 5.83269 7.63548 6.55014 7.21005C7.25761 6.78572 8.06523 6.55723 8.89014 6.54805C9.35014 6.54805 9.95314 6.69005 10.7001 6.97005C11.4471 7.25005 11.9271 7.39205 12.1361 7.39205C12.2941 7.39205 12.8251 7.22505 13.7291 6.89405C14.5821 6.58705 15.3021 6.46005 15.8921 6.51005C17.4921 6.63905 18.6931 7.26905 19.4921 8.40505C18.0621 9.27205 17.3551 10.485 17.3691 12.042C17.3811 13.255 17.8221 14.264 18.6861 15.065C19.0681 15.4306 19.5138 15.7231 20.0011 15.928C19.8951 16.235 19.7831 16.528 19.6651 16.81ZM15.9981 2.37905C15.9981 3.32905 15.6501 4.21705 14.9591 5.03805C14.1231 6.01405 13.1131 6.57905 12.0181 6.49005C12.0038 6.37059 11.9968 6.25036 11.9971 6.13005C11.9971 5.21705 12.3931 4.24105 13.1001 3.44205C13.4521 3.03805 13.9001 2.70105 14.4431 2.43305C14.9851 2.16905 15.4971 2.02305 15.9791 1.99805C15.9921 2.12605 15.9981 2.25305 15.9981 2.37905Z" fill="black"/>
</svg>
